v 5.156925 1.378589 0.009814
v 5.018071 1.896796 0.009814
v 4.638717 2.276150 0.009814
v 4.120511 2.415003 0.009814
v 3.602304 2.276150 0.009814
v 3.222950 1.896796 0.009814
v 3.084097 1.378589 0.009814
v 3.222950 0.860383 0.009814
v 3.602304 0.481029 0.009814
v 4.120511 0.342176 0.009814
v 4.638717 0.481029 0.009814
v 5.018071 0.860383 0.009814
v 5.112591 1.378589 -0.666581
v 4.974926 1.896796 -0.648457
v 4.598817 2.276150 -0.598942
v 4.085044 2.415003 -0.531302
v 3.571270 2.276150 -0.463663
v 3.195163 1.896796 -0.414147
v 3.057498 1.378589 -0.396023
v 3.195163 0.860383 -0.414147
v 3.571270 0.481029 -0.463663
v 4.085044 0.342176 -0.531302
v 4.598817 0.481029 -0.598942
v 4.974926 0.860383 -0.648457
v 4.980350 1.378589 -1.331403
v 4.846228 1.896796 -1.295466
v 4.479800 2.276150 -1.197282
v 3.979251 2.415003 -1.063160
v 3.478702 2.276150 -0.929038
v 3.112274 1.896796 -0.830854
v 2.978153 1.378589 -0.794916
v 3.112274 0.860383 -0.830854
v 3.478702 0.481029 -0.929038
v 3.979251 0.342176 -1.063160
v 4.479800 0.481029 -1.197282
v 4.846228 0.860383 -1.295466
v 4.762463 1.378589 -1.973277
v 4.634179 1.896796 -1.920140
v 4.283701 2.276150 -1.774968
v 3.804942 2.415003 -1.576659
v 3.326181 2.276150 -1.378350
v 2.975704 1.896796 -1.233177
v 2.847420 1.378589 -1.180040
v 2.975704 0.860383 -1.233177
v 3.326181 0.481029 -1.378350
v 3.804942 0.342176 -1.576659
v 4.283701 0.481029 -1.774968
v 4.634179 0.860383 -1.920140
v 4.462658 1.378589 -2.581220
v 4.342408 1.896796 -2.511794
v 4.013878 2.276150 -2.322117
v 3.565098 2.415003 -2.063013
v 3.116318 2.276150 -1.803910
v 2.787788 1.896796 -1.614233
v 2.667538 1.378589 -1.544806
v 2.787788 0.860383 -1.614233
v 3.116318 0.481029 -1.803910
v 3.565098 0.342176 -2.063013
v 4.013878 0.481029 -2.322117
v 4.342408 0.860383 -2.511794
v 4.086068 1.378589 -3.144828
v 3.975908 1.896796 -3.060300
v 3.674947 2.276150 -2.829364
v 3.263826 2.415003 -2.513900
v 2.852705 2.276150 -2.198436
v 2.551743 1.896796 -1.967500
v 2.441583 1.378589 -1.882971
v 2.551743 0.860383 -1.967500
v 2.852705 0.481029 -2.198436
v 3.263826 0.342176 -2.513900
v 3.674947 0.481029 -2.829364
v 3.975908 0.860383 -3.060300
v 3.639132 1.378589 -3.654461
v 3.540948 1.896796 -3.556277
v 3.272704 2.276150 -3.288033
v 2.906277 2.415003 -2.921606
v 2.539849 2.276150 -2.555179
v 2.271606 1.896796 -2.286935
v 2.173422 1.378589 -2.188751
v 2.271606 0.860383 -2.286935
v 2.539849 0.481029 -2.555179
v 2.906277 0.342176 -2.921606
v 3.272704 0.481029 -3.288033
v 3.540948 0.860383 -3.556277
v 3.129500 1.378589 -4.101396
v 3.044972 1.896796 -3.991236
v 2.814036 2.276150 -3.690274
v 2.498572 2.415003 -3.279154
v 2.183107 2.276150 -2.868033
v 1.952172 1.896796 -2.567071
v 1.867643 1.378589 -2.456912
v 1.952172 0.860383 -2.567071
v 2.183107 0.481029 -2.868033
v 2.498572 0.342176 -3.279154
v 2.814036 0.481029 -3.690274
v 3.044972 0.860383 -3.991236
v 2.565890 1.378589 -4.477988
v 2.496464 1.896796 -4.357738
v 2.306787 2.276150 -4.029208
v 2.047684 2.415003 -3.580427
v 1.788581 2.276150 -3.131647
v 1.598904 1.896796 -2.803118
v 1.529477 1.378589 -2.682867
v 1.598904 0.860383 -2.803118
v 1.788581 0.481029 -3.131647
v 2.047684 0.342176 -3.580427
v 2.306787 0.481029 -4.029208
v 2.496464 0.860383 -4.357738
v 1.957950 1.378589 -4.777791
v 1.904813 1.896796 -4.649508
v 1.759641 2.276150 -4.299030
v 1.561331 2.415003 -3.820270
v 1.363022 2.276150 -3.341510
v 1.217850 1.896796 -2.991033
v 1.164713 1.378589 -2.862749
v 1.217850 0.860383 -2.991033
v 1.363022 0.481029 -3.341510
v 1.561331 0.342176 -3.820270
v 1.759641 0.481029 -4.299030
v 1.904813 0.860383 -4.649508
v 1.316075 1.378589 -4.995678
v 1.280137 1.896796 -4.861556
v 1.181953 2.276150 -4.495129
v 1.047832 2.415003 -3.994580
v 0.913710 2.276150 -3.494031
v 0.815526 1.896796 -3.127603
v 0.779588 1.378589 -2.993481
v 0.815526 0.860383 -3.127603
v 0.913710 0.481029 -3.494031
v 1.047832 0.342176 -3.994580
v 1.181953 0.481029 -4.495129
v 1.280137 0.860383 -4.861556
v 0.651252 1.378589 -5.127919
v 0.633128 1.896796 -4.990254
v 0.583613 2.276150 -4.614146
v 0.515973 2.415003 -4.100373
v 0.448334 2.276150 -3.586599
v 0.398818 1.896796 -3.210491
v 0.380694 1.378589 -3.072827
v 0.398818 0.860383 -3.210491
v 0.448334 0.481029 -3.586599
v 0.515973 0.342176 -4.100373
v 0.583613 0.481029 -4.614146
v 0.633128 0.860383 -4.990254
v -0.025142 1.378589 -5.172253
v -0.025142 1.896796 -5.033400
v -0.025142 2.276150 -4.654046
v -0.025142 2.415003 -4.135839
v -0.025142 2.276150 -3.617633
v -0.025142 1.896796 -3.238279
v -0.025142 1.378589 -3.099426
v -0.025142 0.860383 -3.238279
v -0.025142 0.481029 -3.617633
v -0.025142 0.342176 -4.135839
v -0.025142 0.481029 -4.654046
v -0.025142 0.860383 -5.033400
v -0.701539 1.378589 -5.127918
v -0.683415 1.896796 -4.990254
v -0.633899 2.276150 -4.614146
v -0.566260 2.415003 -4.100373
v -0.498620 2.276150 -3.586599
v -0.449104 1.896796 -3.210491
v -0.430980 1.378589 -3.072826
v -0.449104 0.860383 -3.210491
v -0.498620 0.481029 -3.586599
v -0.566260 0.342176 -4.100373
v -0.633899 0.481029 -4.614146
v -0.683415 0.860383 -4.990254
v -1.366359 1.378589 -4.995678
v -1.330422 1.896796 -4.861556
v -1.232238 2.276150 -4.495129
v -1.098116 2.415003 -3.994580
v -0.963994 2.276150 -3.494031
v -0.865810 1.896796 -3.127604
v -0.829873 1.378589 -2.993481
v -0.865810 0.860383 -3.127604
v -0.963994 0.481029 -3.494031
v -1.098116 0.342176 -3.994580
v -1.232238 0.481029 -4.495129
v -1.330422 0.860383 -4.861556
v -2.008234 1.378589 -4.777791
v -1.955097 1.896796 -4.649508
v -1.809925 2.276150 -4.299030
v -1.611616 2.415003 -3.820271
v -1.413307 2.276150 -3.341510
v -1.268134 1.896796 -2.991033
v -1.214997 1.378589 -2.862749
v -1.268134 0.860383 -2.991033
v -1.413307 0.481029 -3.341510
v -1.611616 0.342176 -3.820271
v -1.809925 0.481029 -4.299030
v -1.955097 0.860383 -4.649508
v -2.616175 1.378589 -4.477988
v -2.546749 1.896796 -4.357738
v -2.357072 2.276150 -4.029208
v -2.097969 2.415003 -3.580428
v -1.838865 2.276150 -3.131648
v -1.649189 1.896796 -2.803118
v -1.579762 1.378589 -2.682868
v -1.649189 0.860383 -2.803118
v -1.838865 0.481029 -3.131648
v -2.097969 0.342176 -3.580428
v -2.357072 0.481029 -4.029208
v -2.546749 0.860383 -4.357738
v -3.179785 1.378589 -4.101397
v -3.095257 1.896796 -3.991236
v -2.864321 2.276150 -3.690275
v -2.548857 2.415003 -3.279154
v -2.233392 2.276150 -2.868033
v -2.002456 1.896796 -2.567072
v -1.917928 1.378589 -2.456912
v -2.002456 0.860383 -2.567072
v -2.233392 0.481029 -2.868033
v -2.548857 0.342176 -3.279154
v -2.864321 0.481029 -3.690275
v -3.095257 0.860383 -3.991236
v -3.689418 1.378589 -3.654460
v -3.591234 1.896796 -3.556276
v -3.322991 2.276150 -3.288032
v -2.956563 2.415003 -2.921605
v -2.590136 2.276150 -2.555178
v -2.321892 1.896796 -2.286934
v -2.223708 1.378589 -2.188751
v -2.321892 0.860383 -2.286934
v -2.590136 0.481029 -2.555178
v -2.956563 0.342176 -2.921605
v -3.322991 0.481029 -3.288032
v -3.591234 0.860383 -3.556276
v -4.136353 1.378589 -3.144828
v -4.026193 1.896796 -3.060300
v -3.725231 2.276150 -2.829364
v -3.314111 2.415003 -2.513900
v -2.902990 2.276150 -2.198436
v -2.602028 1.896796 -1.967500
v -2.491869 1.378589 -1.882972
v -2.602028 0.860383 -1.967500
v -2.902990 0.481029 -2.198436
v -3.314111 0.342176 -2.513900
v -3.725231 0.481029 -2.829364
v -4.026193 0.860383 -3.060300
v -4.512944 1.378589 -2.581221
v -4.392694 1.896796 -2.511794
v -4.064164 2.276150 -2.322117
v -3.615384 2.415003 -2.063014
v -3.166603 2.276150 -1.803910
v -2.838073 1.896796 -1.614233
v -2.717823 1.378589 -1.544807
v -2.838073 0.860383 -1.614233
v -3.166603 0.481029 -1.803910
v -3.615384 0.342176 -2.063014
v -4.064164 0.481029 -2.322117
v -4.392694 0.860383 -2.511794
v -4.812749 1.378589 -1.973277
v -4.684465 1.896796 -1.920141
v -4.333987 2.276150 -1.774968
v -3.855227 2.415003 -1.576659
v -3.376467 2.276150 -1.378350
v -3.025989 1.896796 -1.233178
v -2.897706 1.378589 -1.180041
v -3.025989 0.860383 -1.233178
v -3.376467 0.481029 -1.378350
v -3.855227 0.342176 -1.576659
v -4.333987 0.481029 -1.774968
v -4.684465 0.860383 -1.920141
v -5.030635 1.378589 -1.331403
v -4.896513 1.896796 -1.295465
v -4.530086 2.276150 -1.197281
v -4.029537 2.415003 -1.063160
v -3.528988 2.276150 -0.929038
v -3.162560 1.896796 -0.830854
v -3.028438 1.378589 -0.794916
v -3.162560 0.860383 -0.830854
v -3.528988 0.481029 -0.929038
v -4.029537 0.342176 -1.063160
v -4.530086 0.481029 -1.197281
v -4.896513 0.860383 -1.295465
v -5.162876 1.378589 -0.666582
v -5.025211 1.896796 -0.648458
v -4.649103 2.276150 -0.598943
v -4.135330 2.415003 -0.531303
v -3.621556 2.276150 -0.463663
v -3.245448 1.896796 -0.414148
v -3.107783 1.378589 -0.396024
v -3.245448 0.860383 -0.414148
v -3.621556 0.481029 -0.463663
v -4.135330 0.342176 -0.531303
v -4.649103 0.481029 -0.598943
v -5.025211 0.860383 -0.648458
v -5.207210 1.378589 0.009813
v -5.068356 1.896796 0.009813
v -4.689003 2.276150 0.009814
v -4.170796 2.415003 0.009814
v -3.652590 2.276150 0.009814
v -3.273236 1.896796 0.009814
v -3.134383 1.378589 0.009814
v -3.273236 0.860383 0.009814
v -3.652590 0.481029 0.009814
v -4.170796 0.342176 0.009814
v -4.689003 0.481029 0.009814
v -5.068356 0.860383 0.009813
v -5.162876 1.378589 0.686210
v -5.025211 1.896796 0.668086
v -4.649103 2.276150 0.618570
v -4.135330 2.415003 0.550931
v -3.621556 2.276150 0.483291
v -3.245448 1.896796 0.433776
v -3.107783 1.378589 0.415652
v -3.245448 0.860383 0.433776
v -3.621556 0.481029 0.483291
v -4.135330 0.342176 0.550931
v -4.649103 0.481029 0.618570
v -5.025211 0.860383 0.668086
v -5.030635 1.378589 1.351031
v -4.896513 1.896796 1.315093
v -4.530086 2.276150 1.216909
v -4.029537 2.415003 1.082788
v -3.528988 2.276150 0.948666
v -3.162560 1.896796 0.850482
v -3.028438 1.378589 0.814544
v -3.162560 0.860383 0.850482
v -3.528988 0.481029 0.948666
v -4.029537 0.342176 1.082788
v -4.530086 0.481029 1.216909
v -4.896513 0.860383 1.315093
v -4.812749 1.378589 1.992903
v -4.684466 1.896796 1.939766
v -4.333989 2.276150 1.794594
v -3.855228 2.415003 1.596285
v -3.376467 2.276150 1.397976
v -3.025990 1.896796 1.252804
v -2.897707 1.378589 1.199668
v -3.025990 0.860383 1.252804
v -3.376467 0.481029 1.397976
v -3.855228 0.342176 1.596285
v -4.333989 0.481029 1.794594
v -4.684466 0.860383 1.939766
v -4.512945 1.378589 2.600846
v -4.392695 1.896796 2.531420
v -4.064165 2.276150 2.341743
v -3.615384 2.415003 2.082639
v -3.166604 2.276150 1.823537
v -2.838074 1.896796 1.633860
v -2.717824 1.378589 1.564433
v -2.838074 0.860383 1.633860
v -3.166604 0.481029 1.823537
v -3.615384 0.342176 2.082639
v -4.064165 0.481029 2.341743
v -4.392695 0.860383 2.531420
v -4.136353 1.378589 3.164456
v -4.026193 1.896796 3.079928
v -3.725231 2.276150 2.848992
v -3.314111 2.415003 2.533528
v -2.902990 2.276150 2.218063
v -2.602028 1.896796 1.987128
v -2.491869 1.378589 1.902599
v -2.602028 0.860383 1.987128
v -2.902990 0.481029 2.218063
v -3.314111 0.342176 2.533528
v -3.725231 0.481029 2.848992
v -4.026193 0.860383 3.079928
v -3.689418 1.378589 3.674087
v -3.591234 1.896796 3.575904
v -3.322991 2.276150 3.307660
v -2.956563 2.415003 2.941233
v -2.590136 2.276150 2.574805
v -2.321892 1.896796 2.306561
v -2.223708 1.378589 2.208378
v -2.321892 0.860383 2.306561
v -2.590136 0.481029 2.574805
v -2.956563 0.342176 2.941233
v -3.322991 0.481029 3.307660
v -3.591234 0.860383 3.575904
v -3.179787 1.378589 4.121022
v -3.095259 1.896796 4.010862
v -2.864323 2.276150 3.709901
v -2.548858 2.415003 3.298780
v -2.233394 2.276150 2.887660
v -2.002458 1.896796 2.586698
v -1.917929 1.378589 2.476539
v -2.002458 0.860383 2.586698
v -2.233394 0.481029 2.887660
v -2.548858 0.342176 3.298780
v -2.864323 0.481029 3.709901
v -3.095259 0.860383 4.010862
v -2.616175 1.378589 4.497616
v -2.546749 1.896796 4.377366
v -2.357072 2.276150 4.048836
v -2.097969 2.415003 3.600055
v -1.838865 2.276150 3.151275
v -1.649189 1.896796 2.822745
v -1.579762 1.378589 2.702495
v -1.649189 0.860383 2.822745
v -1.838865 0.481029 3.151275
v -2.097969 0.342176 3.600055
v -2.357072 0.481029 4.048836
v -2.546749 0.860383 4.377366
v -2.008234 1.378589 4.797420
v -1.955097 1.896796 4.669136
v -1.809925 2.276150 4.318659
v -1.611616 2.415003 3.839898
v -1.413307 2.276150 3.361137
v -1.268134 1.896796 3.010660
v -1.214997 1.378589 2.882377
v -1.268134 0.860383 3.010660
v -1.413307 0.481029 3.361137
v -1.611616 0.342176 3.839898
v -1.809925 0.481029 4.318659
v -1.955097 0.860383 4.669136
v -1.366362 1.378589 5.015306
v -1.330424 1.896796 4.881185
v -1.232240 2.276150 4.514757
v -1.098118 2.415003 4.014207
v -0.963996 2.276150 3.513658
v -0.865812 1.896796 3.147230
v -0.829874 1.378589 3.013109
v -0.865812 0.860383 3.147230
v -0.963996 0.481029 3.513658
v -1.098118 0.342176 4.014207
v -1.232240 0.481029 4.514757
v -1.330424 0.860383 4.881185
v -0.701541 1.378589 5.147548
v -0.683417 1.896796 5.009883
v -0.633901 2.276150 4.633774
v -0.566261 2.415003 4.120000
v -0.498622 2.276150 3.606227
v -0.449106 1.896796 3.230119
v -0.430982 1.378589 3.092453
v -0.449106 0.860383 3.230119
v -0.498622 0.481029 3.606227
v -0.566261 0.342176 4.120000
v -0.633901 0.481029 4.633774
v -0.683417 0.860383 5.009883
v -0.025142 1.378589 5.191881
v -0.025142 1.896796 5.053028
v -0.025142 2.276150 4.673675
v -0.025142 2.415003 4.155467
v -0.025142 2.276150 3.637261
v -0.025142 1.896796 3.257907
v -0.025142 1.378589 3.119054
v -0.025142 0.860383 3.257907
v -0.025142 0.481029 3.637261
v -0.025142 0.342176 4.155467
v -0.025142 0.481029 4.673675
v -0.025142 0.860383 5.053028
v 0.651252 1.378589 5.147548
v 0.633128 1.896796 5.009883
v 0.583613 2.276150 4.633775
v 0.515973 2.415003 4.120001
v 0.448334 2.276150 3.606227
v 0.398818 1.896796 3.230119
v 0.380694 1.378589 3.092454
v 0.398818 0.860383 3.230119
v 0.448334 0.481029 3.606227
v 0.515973 0.342176 4.120001
v 0.583613 0.481029 4.633775
v 0.633128 0.860383 5.009883
v 1.316073 1.378589 5.015307
v 1.280135 1.896796 4.881186
v 1.181951 2.276150 4.514757
v 1.047830 2.415003 4.014208
v 0.913708 2.276150 3.513659
v 0.815524 1.896796 3.147231
v 0.779587 1.378589 3.013109
v 0.815524 0.860383 3.147231
v 0.913708 0.481029 3.513659
v 1.047830 0.342176 4.014208
v 1.181951 0.481029 4.514757
v 1.280135 0.860383 4.881186
v 1.957950 1.378589 4.797419
v 1.904813 1.896796 4.669135
v 1.759641 2.276150 4.318659
v 1.561331 2.415003 3.839898
v 1.363022 2.276150 3.361137
v 1.217850 1.896796 3.010660
v 1.164713 1.378589 2.882377
v 1.217850 0.860383 3.010660
v 1.363022 0.481029 3.361137
v 1.561331 0.342176 3.839898
v 1.759641 0.481029 4.318659
v 1.904813 0.860383 4.669135
v 2.565890 1.378589 4.497616
v 2.496464 1.896796 4.377365
v 2.306787 2.276150 4.048836
v 2.047684 2.415003 3.600055
v 1.788581 2.276150 3.151275
v 1.598904 1.896796 2.822745
v 1.529477 1.378589 2.702495
v 1.598904 0.860383 2.822745
v 1.788581 0.481029 3.151275
v 2.047684 0.342176 3.600055
v 2.306787 0.481029 4.048836
v 2.496464 0.860383 4.377365
v 3.129498 1.378589 4.121025
v 3.044970 1.896796 4.010865
v 2.814034 2.276150 3.709904
v 2.498570 2.415003 3.298783
v 2.183106 2.276150 2.887661
v 1.952170 1.896796 2.586700
v 1.867642 1.378589 2.476540
v 1.952170 0.860383 2.586700
v 2.183106 0.481029 2.887661
v 2.498570 0.342176 3.298783
v 2.814034 0.481029 3.709904
v 3.044970 0.860383 4.010865
v 3.639130 1.378589 3.674090
v 3.540946 1.896796 3.575907
v 3.272703 2.276150 3.307663
v 2.906276 2.415003 2.941235
v 2.539848 2.276150 2.574808
v 2.271605 1.896796 2.306564
v 2.173421 1.378589 2.208380
v 2.271605 0.860383 2.306564
v 2.539848 0.481029 2.574808
v 2.906276 0.342176 2.941235
v 3.272703 0.481029 3.307663
v 3.540946 0.860383 3.575907
v 4.086068 1.378589 3.164456
v 3.975908 1.896796 3.079927
v 3.674947 2.276150 2.848991
v 3.263826 2.415003 2.533527
v 2.852705 2.276150 2.218063
v 2.551743 1.896796 1.987127
v 2.441583 1.378589 1.902599
v 2.551743 0.860383 1.987127
v 2.852705 0.481029 2.218063
v 3.263826 0.342176 2.533527
v 3.674947 0.481029 2.848991
v 3.975908 0.860383 3.079927
v 4.462658 1.378589 2.600847
v 4.342408 1.896796 2.531421
v 4.013878 2.276150 2.341744
v 3.565098 2.415003 2.082641
v 3.116318 2.276150 1.823538
v 2.787788 1.896796 1.633861
v 2.667538 1.378589 1.564434
v 2.787788 0.860383 1.633861
v 3.116318 0.481029 1.823538
v 3.565098 0.342176 2.082641
v 4.013878 0.481029 2.341744
v 4.342408 0.860383 2.531421
v 4.762462 1.378589 1.992907
v 4.634179 1.896796 1.939770
v 4.283701 2.276150 1.794598
v 3.804941 2.415003 1.596288
v 3.326180 2.276150 1.397979
v 2.975703 1.896796 1.252807
v 2.847420 1.378589 1.199670
v 2.975703 0.860383 1.252807
v 3.326180 0.481029 1.397979
v 3.804941 0.342176 1.596288
v 4.283701 0.481029 1.794598
v 4.634179 0.860383 1.939770
v 4.980350 1.378589 1.351030
v 4.846228 1.896796 1.315092
v 4.479800 2.276150 1.216909
v 3.979251 2.415003 1.082787
v 3.478702 2.276150 0.948665
v 3.112274 1.896796 0.850481
v 2.978153 1.378589 0.814544
v 3.112274 0.860383 0.850481
v 3.478702 0.481029 0.948665
v 3.979251 0.342176 1.082787
v 4.479800 0.481029 1.216909
v 4.846228 0.860383 1.315092
v 5.112591 1.378589 0.686209
v 4.974926 1.896796 0.668085
v 4.598817 2.276150 0.618570
v 4.085044 2.415003 0.550930
v 3.571270 2.276150 0.483291
v 3.195163 1.896796 0.433775
v 3.057498 1.378589 0.415651
v 3.195163 0.860383 0.433775
v 3.571270 0.481029 0.483291
v 4.085044 0.342176 0.550930
v 4.598817 0.481029 0.618570
v 4.974926 0.860383 0.668085
vn 0.9640 0.2583 -0.0632
vn 0.7063 0.7063 -0.0463
vn 0.2588 0.9658 -0.0170
vn -0.2588 0.9658 0.0170
vn -0.7063 0.7063 0.0463
vn -0.9640 0.2583 0.0632
vn -0.9640 -0.2583 0.0632
vn -0.7063 -0.7063 0.0463
vn -0.2588 -0.9658 0.0170
vn 0.2588 -0.9658 -0.0170
vn 0.7063 -0.7063 -0.0463
vn 0.9640 -0.2583 -0.0632
vn 0.9475 0.2583 -0.1885
vn 0.6943 0.7063 -0.1381
vn 0.2544 0.9658 -0.0506
vn -0.2544 0.9658 0.0506
vn -0.6943 0.7063 0.1381
vn -0.9475 0.2583 0.1885
vn -0.9475 -0.2583 0.1885
vn -0.6943 -0.7063 0.1381
vn -0.2544 -0.9658 0.0506
vn 0.2544 -0.9658 -0.0506
vn 0.6943 -0.7063 -0.1381
vn 0.9475 -0.2583 -0.1885
vn 0.9148 0.2583 -0.3105
vn 0.6703 0.7063 -0.2275
vn 0.2456 0.9658 -0.0834
vn -0.2456 0.9658 0.0834
vn -0.6703 0.7063 0.2275
vn -0.9148 0.2583 0.3105
vn -0.9148 -0.2583 0.3105
vn -0.6703 -0.7063 0.2275
vn -0.2456 -0.9658 0.0834
vn 0.2456 -0.9658 -0.0834
vn 0.6703 -0.7063 -0.2275
vn 0.9148 -0.2583 -0.3105
vn 0.8664 0.2583 -0.4273
vn 0.6349 0.7063 -0.3131
vn 0.2326 0.9658 -0.1147
vn -0.2326 0.9658 0.1147
vn -0.6349 0.7063 0.3131
vn -0.8664 0.2583 0.4273
vn -0.8664 -0.2583 0.4273
vn -0.6349 -0.7063 0.3131
vn -0.2326 -0.9658 0.1147
vn 0.2326 -0.9658 -0.1147
vn 0.6349 -0.7063 -0.3131
vn 0.8664 -0.2583 -0.4273
vn 0.8033 0.2583 -0.5367
vn 0.5886 0.7063 -0.3933
vn 0.2156 0.9658 -0.1441
vn -0.2156 0.9658 0.1441
vn -0.5886 0.7063 0.3933
vn -0.8033 0.2583 0.5367
vn -0.8033 -0.2583 0.5367
vn -0.5886 -0.7063 0.3933
vn -0.2156 -0.9658 0.1441
vn 0.2156 -0.9658 -0.1441
vn 0.5886 -0.7063 -0.3933
vn 0.8033 -0.2583 -0.5367
vn 0.7263 0.2583 -0.6370
vn 0.5322 0.7063 -0.4667
vn 0.1950 0.9658 -0.1710
vn -0.1950 0.9658 0.1710
vn -0.5322 0.7063 0.4667
vn -0.7263 0.2583 0.6370
vn -0.7263 -0.2583 0.6370
vn -0.5322 -0.7063 0.4667
vn -0.1950 -0.9658 0.1710
vn 0.1950 -0.9658 -0.1710
vn 0.5322 -0.7063 -0.4667
vn 0.7263 -0.2583 -0.6370
vn 0.6370 0.2583 -0.7263
vn 0.4667 0.7063 -0.5322
vn 0.1710 0.9658 -0.1950
vn -0.1710 0.9658 0.1950
vn -0.4667 0.7063 0.5322
vn -0.6370 0.2583 0.7263
vn -0.6370 -0.2583 0.7263
vn -0.4667 -0.7063 0.5322
vn -0.1710 -0.9658 0.1950
vn 0.1710 -0.9658 -0.1950
vn 0.4667 -0.7063 -0.5322
vn 0.6370 -0.2583 -0.7263
vn 0.5367 0.2583 -0.8033
vn 0.3933 0.7063 -0.5886
vn 0.1441 0.9658 -0.2156
vn -0.1441 0.9658 0.2156
vn -0.3933 0.7063 0.5886
vn -0.5367 0.2583 0.8033
vn -0.5367 -0.2583 0.8033
vn -0.3933 -0.7063 0.5886
vn -0.1441 -0.9658 0.2156
vn 0.1441 -0.9658 -0.2156
vn 0.3933 -0.7063 -0.5886
vn 0.5367 -0.2583 -0.8033
vn 0.4273 0.2583 -0.8664
vn 0.3131 0.7063 -0.6349
vn 0.1147 0.9658 -0.2326
vn -0.1147 0.9658 0.2326
vn -0.3131 0.7063 0.6349
vn -0.4273 0.2583 0.8664
vn -0.4273 -0.2583 0.8664
vn -0.3131 -0.7063 0.6349
vn -0.1147 -0.9658 0.2326
vn 0.1147 -0.9658 -0.2326
vn 0.3131 -0.7063 -0.6349
vn 0.4273 -0.2583 -0.8664
vn 0.3105 0.2583 -0.9148
vn 0.2275 0.7063 -0.6703
vn 0.0834 0.9658 -0.2456
vn -0.0834 0.9658 0.2456
vn -0.2275 0.7063 0.6703
vn -0.3105 0.2583 0.9148
vn -0.3105 -0.2583 0.9148
vn -0.2275 -0.7063 0.6703
vn -0.0834 -0.9658 0.2456
vn 0.0834 -0.9658 -0.2456
vn 0.2275 -0.7063 -0.6703
vn 0.3105 -0.2583 -0.9148
vn 0.1885 0.2583 -0.9475
vn 0.1381 0.7063 -0.6943
vn 0.0506 0.9658 -0.2544
vn -0.0506 0.9658 0.2544
vn -0.1381 0.7063 0.6943
vn -0.1885 0.2583 0.9475
vn -0.1885 -0.2583 0.9475
vn -0.1381 -0.7063 0.6943
vn -0.0506 -0.9658 0.2544
vn 0.0506 -0.9658 -0.2544
vn 0.1381 -0.7063 -0.6943
vn 0.1885 -0.2583 -0.9475
vn 0.0632 0.2583 -0.9640
vn 0.0463 0.7063 -0.7063
vn 0.0170 0.9658 -0.2588
vn -0.0170 0.9658 0.2588
vn -0.0463 0.7063 0.7063
vn -0.0632 0.2583 0.9640
vn -0.0632 -0.2583 0.9640
vn -0.0463 -0.7063 0.7063
vn -0.0170 -0.9658 0.2588
vn 0.0170 -0.9658 -0.2588
vn 0.0463 -0.7063 -0.7063
vn 0.0632 -0.2583 -0.9640
vn -0.0632 0.2583 -0.9640
vn -0.0463 0.7063 -0.7063
vn -0.0170 0.9658 -0.2588
vn 0.0170 0.9658 0.2588
vn 0.0463 0.7063 0.7063
vn 0.0632 0.2583 0.9640
vn 0.0632 -0.2583 0.9640
vn 0.0463 -0.7063 0.7063
vn 0.0170 -0.9658 0.2588
vn -0.0170 -0.9658 -0.2588
vn -0.0463 -0.7063 -0.7063
vn -0.0632 -0.2583 -0.9640
vn -0.1885 0.2583 -0.9475
vn -0.1381 0.7063 -0.6943
vn -0.0506 0.9658 -0.2544
vn 0.0506 0.9658 0.2544
vn 0.1381 0.7063 0.6943
vn 0.1885 0.2583 0.9475
vn 0.1885 -0.2583 0.9475
vn 0.1381 -0.7063 0.6943
vn 0.0506 -0.9658 0.2544
vn -0.0506 -0.9658 -0.2544
vn -0.1381 -0.7063 -0.6943
vn -0.1885 -0.2583 -0.9475
vn -0.3105 0.2583 -0.9148
vn -0.2275 0.7063 -0.6703
vn -0.0834 0.9658 -0.2456
vn 0.0834 0.9658 0.2456
vn 0.2275 0.7063 0.6703
vn 0.3105 0.2583 0.9148
vn 0.3105 -0.2583 0.9148
vn 0.2275 -0.7063 0.6703
vn 0.0834 -0.9658 0.2456
vn -0.0834 -0.9658 -0.2456
vn -0.2275 -0.7063 -0.6703
vn -0.3105 -0.2583 -0.9148
vn -0.4273 0.2583 -0.8664
vn -0.3131 0.7063 -0.6349
vn -0.1147 0.9658 -0.2326
vn 0.1147 0.9658 0.2326
vn 0.3131 0.7063 0.6349
vn 0.4273 0.2583 0.8664
vn 0.4273 -0.2583 0.8664
vn 0.3131 -0.7063 0.6349
vn 0.1147 -0.9658 0.2326
vn -0.1147 -0.9658 -0.2326
vn -0.3131 -0.7063 -0.6349
vn -0.4273 -0.2583 -0.8664
vn -0.5367 0.2583 -0.8033
vn -0.3933 0.7063 -0.5886
vn -0.1441 0.9658 -0.2156
vn 0.1441 0.9658 0.2156
vn 0.3933 0.7063 0.5886
vn 0.5367 0.2583 0.8033
vn 0.5367 -0.2583 0.8033
vn 0.3933 -0.7063 0.5886
vn 0.1441 -0.9658 0.2156
vn -0.1441 -0.9658 -0.2156
vn -0.3933 -0.7063 -0.5886
vn -0.5367 -0.2583 -0.8033
vn -0.6370 0.2583 -0.7263
vn -0.4667 0.7063 -0.5322
vn -0.1710 0.9658 -0.1950
vn 0.1710 0.9658 0.1950
vn 0.4667 0.7063 0.5322
vn 0.6370 0.2583 0.7263
vn 0.6370 -0.2583 0.7263
vn 0.4667 -0.7063 0.5322
vn 0.1710 -0.9658 0.1950
vn -0.1710 -0.9658 -0.1950
vn -0.4667 -0.7063 -0.5322
vn -0.6370 -0.2583 -0.7263
vn -0.7071 -0.0000 0.7071
vn 0.6088 -0.0000 -0.7934
vn -0.8033 0.2583 -0.5367
vn -0.5886 0.7063 -0.3933
vn -0.2156 0.9658 -0.1441
vn 0.2156 0.9658 0.1441
vn 0.5886 0.7063 0.3933
vn 0.8033 0.2583 0.5367
vn 0.8033 -0.2583 0.5367
vn 0.5886 -0.7063 0.3933
vn 0.2156 -0.9658 0.1441
vn -0.2156 -0.9658 -0.1441
vn -0.5886 -0.7063 -0.3933
vn -0.8033 -0.2583 -0.5367
vn -0.8664 0.2583 -0.4273
vn -0.6349 0.7063 -0.3131
vn -0.2326 0.9658 -0.1147
vn 0.2326 0.9658 0.1147
vn 0.6349 0.7063 0.3131
vn 0.8664 0.2583 0.4273
vn 0.8664 -0.2583 0.4273
vn 0.6349 -0.7063 0.3131
vn 0.2326 -0.9658 0.1147
vn -0.2326 -0.9658 -0.1147
vn -0.6349 -0.7063 -0.3131
vn -0.8664 -0.2583 -0.4273
vn -0.9148 0.2583 -0.3105
vn -0.6703 0.7063 -0.2275
vn -0.2456 0.9658 -0.0834
vn 0.2456 0.9658 0.0834
vn 0.6703 0.7063 0.2275
vn 0.9148 0.2583 0.3105
vn 0.9148 -0.2583 0.3105
vn 0.6703 -0.7063 0.2275
vn 0.2456 -0.9658 0.0834
vn -0.2456 -0.9658 -0.0834
vn -0.6703 -0.7063 -0.2275
vn -0.9148 -0.2583 -0.3105
vn -0.9475 0.2583 -0.1885
vn -0.6943 0.7063 -0.1381
vn -0.2544 0.9658 -0.0506
vn 0.2544 0.9658 0.0506
vn 0.6943 0.7063 0.1381
vn 0.9475 0.2583 0.1885
vn 0.9475 -0.2583 0.1885
vn 0.6943 -0.7063 0.1381
vn 0.2544 -0.9658 0.0506
vn -0.2544 -0.9658 -0.0506
vn -0.6943 -0.7063 -0.1381
vn -0.9475 -0.2583 -0.1885
vn -0.9640 0.2583 -0.0632
vn -0.7063 0.7063 -0.0463
vn -0.2588 0.9658 -0.0170
vn 0.2588 0.9658 0.0170
vn 0.7063 0.7063 0.0463
vn 0.9640 0.2583 0.0632
vn 0.9640 -0.2583 0.0632
vn 0.7063 -0.7063 0.0463
vn 0.2588 -0.9658 0.0170
vn -0.2588 -0.9658 -0.0170
vn -0.7063 -0.7063 -0.0463
vn -0.9640 -0.2583 -0.0632
vn 0.7263 0.2583 0.6370
vn 0.5322 0.7063 0.4667
vn 0.1950 0.9658 0.1710
vn -0.1950 0.9658 -0.1710
vn -0.5322 0.7063 -0.4667
vn -0.7263 0.2583 -0.6370
vn -0.7263 -0.2583 -0.6370
vn -0.5322 -0.7063 -0.4667
vn -0.1950 -0.9658 -0.1710
vn 0.1950 -0.9658 0.1710
vn 0.5322 -0.7063 0.4667
vn 0.7263 -0.2583 0.6370
vt 0.500000 0.500000
vt 0.520833 0.583333
vt 0.500000 0.583333
vt 0.500000 0.666667
vt 0.520833 0.750000
vt 0.500000 0.750000
vt 0.500000 0.833333
vt 0.520833 0.916667
vt 0.500000 0.916667
vt 0.500000 1.000000
vt 0.520833 0.000000
vt 0.500000 0.083333
vt 0.500000 0.000000
vt 0.520833 0.166667
vt 0.500000 0.166667
vt 0.520833 0.250000
vt 0.500000 0.250000
vt 0.520833 0.333333
vt 0.500000 0.333333
vt 0.520833 0.416667
vt 0.500000 0.416667
vt 0.541667 0.500000
vt 0.520833 0.500000
vt 0.541667 0.583333
vt 0.520833 0.666667
vt 0.541667 0.666667
vt 0.541667 0.833333
vt 0.520833 0.833333
vt 0.541667 0.916667
vt 0.520833 1.000000
vt 0.541667 0.000000
vt 0.520833 0.083333
vt 0.541667 0.083333
vt 0.541667 0.166667
vt 0.541667 0.250000
vt 0.541667 0.416667
vt 0.562500 0.500000
vt 0.562500 0.583333
vt 0.562500 0.750000
vt 0.541667 0.750000
vt 0.562500 0.833333
vt 0.562500 0.916667
vt 0.541667 1.000000
vt 0.562500 0.083333
vt 0.562500 0.166667
vt 0.562500 0.250000
vt 0.541667 0.333333
vt 0.562500 0.416667
vt 0.583333 0.500000
vt 0.583333 0.583333
vt 0.562500 0.666667
vt 0.583333 0.750000
vt 0.583333 0.833333
vt 0.583333 0.916667
vt 0.562500 1.000000
vt 0.562500 0.000000
vt 0.583333 0.083333
vt 0.583333 0.250000
vt 0.562500 0.333333
vt 0.583333 0.333333
vt 0.604167 0.500000
vt 0.604167 0.666667
vt 0.583333 0.666667
vt 0.604167 0.750000
vt 0.604167 0.916667
vt 0.583333 1.000000
vt 0.583333 0.000000
vt 0.604167 0.083333
vt 0.583333 0.166667
vt 0.604167 0.250000
vt 0.604167 0.333333
vt 0.583333 0.416667
vt 0.604167 0.416667
vt 0.625000 0.500000
vt 0.604167 0.583333
vt 0.625000 0.666667
vt 0.625000 0.750000
vt 0.604167 0.833333
vt 0.625000 0.833333
vt 0.625000 1.000000
vt 0.604167 1.000000
vt 0.625000 0.000000
vt 0.604167 0.000000
vt 0.625000 0.083333
vt 0.604167 0.166667
vt 0.625000 0.250000
vt 0.625000 0.333333
vt 0.645833 0.583333
vt 0.625000 0.583333
vt 0.645833 0.666667
vt 0.645833 0.750000
vt 0.645833 0.833333
vt 0.625000 0.916667
vt 0.645833 0.916667
vt 0.645833 0.000000
vt 0.645833 0.083333
vt 0.625000 0.166667
vt 0.645833 0.250000
vt 0.645833 0.333333
vt 0.645833 0.416667
vt 0.625000 0.416667
vt 0.645833 0.500000
vt 0.666667 0.583333
vt 0.666667 0.666667
vt 0.666667 0.750000
vt 0.666667 0.833333
vt 0.666667 0.916667
vt 0.645833 1.000000
vt 0.666667 0.000000
vt 0.666667 0.083333
vt 0.645833 0.166667
vt 0.666667 0.166667
vt 0.666667 0.250000
vt 0.666667 0.333333
vt 0.666667 0.416667
vt 0.687500 0.500000
vt 0.666667 0.500000
vt 0.687500 0.583333
vt 0.687500 0.666667
vt 0.687500 0.750000
vt 0.687500 0.833333
vt 0.687500 0.916667
vt 0.666667 1.000000
vt 0.687500 0.000000
vt 0.687500 0.166667
vt 0.687500 0.250000
vt 0.687500 0.416667
vt 0.708333 0.583333
vt 0.708333 0.666667
vt 0.708333 0.750000
vt 0.708333 0.916667
vt 0.708333 1.000000
vt 0.687500 1.000000
vt 0.708333 0.000000
vt 0.687500 0.083333
vt 0.708333 0.083333
vt 0.708333 0.166667
vt 0.708333 0.250000
vt 0.687500 0.333333
vt 0.708333 0.333333
vt 0.708333 0.416667
vt 0.708333 0.500000
vt 0.729167 0.583333
vt 0.729167 0.666667
vt 0.729167 0.750000
vt 0.708333 0.833333
vt 0.729167 0.833333
vt 0.729167 0.916667
vt 0.729167 0.000000
vt 0.729167 0.166667
vt 0.729167 0.250000
vt 0.729167 0.333333
vt 0.729167 0.416667
vt 0.750000 0.500000
vt 0.729167 0.500000
vt 0.750000 0.583333
vt 0.750000 0.666667
vt 0.750000 0.833333
vt 0.750000 0.916667
vt 0.750000 1.000000
vt 0.729167 1.000000
vt 0.750000 0.000000
vt 0.729167 0.083333
vt 0.750000 0.083333
vt 0.750000 0.166667
vt 0.750000 0.250000
vt 0.750000 0.416667
vt 0.770833 0.500000
vt 0.770833 0.666667
vt 0.770833 0.750000
vt 0.750000 0.750000
vt 0.770833 0.833333
vt 0.770833 0.916667
vt 0.770833 0.000000
vt 0.770833 0.083333
vt 0.770833 0.250000
vt 0.750000 0.333333
vt 0.770833 0.333333
vt 0.791667 0.500000
vt 0.770833 0.583333
vt 0.791667 0.583333
vt 0.791667 0.666667
vt 0.791667 0.750000
vt 0.791667 0.916667
vt 0.770833 1.000000
vt 0.791667 0.083333
vt 0.770833 0.166667
vt 0.791667 0.166667
vt 0.791667 0.333333
vt 0.791667 0.416667
vt 0.770833 0.416667
vt 0.812500 0.500000
vt 0.812500 0.583333
vt 0.812500 0.750000
vt 0.791667 0.833333
vt 0.812500 0.833333
vt 0.812500 0.916667
vt 0.791667 1.000000
vt 0.791667 0.000000
vt 0.812500 0.083333
vt 0.812500 0.250000
vt 0.791667 0.250000
vt 0.812500 0.333333
vt 0.812500 0.416667
vt 0.833333 0.500000
vt 0.833333 0.666667
vt 0.812500 0.666667
vt 0.833333 0.750000
vt 0.833333 0.833333
vt 0.833333 0.916667
vt 0.812500 1.000000
vt 0.833333 0.000000
vt 0.812500 0.000000
vt 0.833333 0.083333
vt 0.812500 0.166667
vt 0.833333 0.250000
vt 0.833333 0.333333
vt 0.854167 0.500000
vt 0.833333 0.583333
vt 0.854167 0.666667
vt 0.854167 0.833333
vt 0.854167 0.916667
vt 0.833333 1.000000
vt 0.854167 0.000000
vt 0.854167 0.083333
vt 0.833333 0.166667
vt 0.854167 0.166667
vt 0.854167 0.250000
vt 0.854167 0.333333
vt 0.833333 0.416667
vt 0.875000 0.583333
vt 0.854167 0.583333
vt 0.875000 0.750000
vt 0.854167 0.750000
vt 0.875000 0.833333
vt 0.875000 0.916667
vt 0.854167 1.000000
vt 0.875000 0.000000
vt 0.875000 0.083333
vt 0.875000 0.166667
vt 0.875000 0.250000
vt 0.875000 0.416667
vt 0.854167 0.416667
vt 0.000000 0.000000
vt 0.895833 0.500000
vt 0.916667 0.583333
vt 0.895833 0.583333
vt 0.916667 0.666667
vt 0.895833 0.666667
vt 0.895833 0.750000
vt 0.916667 0.750000
vt 0.895833 0.833333
vt 0.916667 0.833333
vt 0.895833 0.916667
vt 0.916667 0.916667
vt 0.895833 1.000000
vt 0.916667 0.000000
vt 0.895833 0.083333
vt 0.895833 0.000000
vt 0.916667 0.166667
vt 0.895833 0.166667
vt 0.916667 0.250000
vt 0.895833 0.250000
vt 0.895833 0.333333
vt 0.916667 0.333333
vt 0.895833 0.416667
vt 0.916667 0.416667
vt 0.916667 0.500000
vt 0.937500 0.583333
vt 0.937500 0.666667
vt 0.937500 0.833333
vt 0.937500 0.916667
vt 0.937500 1.000000
vt 0.916667 1.000000
vt 0.937500 0.083333
vt 0.916667 0.083333
vt 0.937500 0.166667
vt 0.937500 0.333333
vt 0.937500 0.416667
vt 0.958333 0.500000
vt 0.937500 0.500000
vt 0.958333 0.666667
vt 0.937500 0.750000
vt 0.958333 0.833333
vt 0.958333 0.916667
vt 0.958333 0.000000
vt 0.937500 0.000000
vt 0.958333 0.083333
vt 0.958333 0.166667
vt 0.937500 0.250000
vt 0.958333 0.250000
vt 0.958333 0.333333
vt 0.979167 0.500000
vt 0.958333 0.583333
vt 0.979167 0.583333
vt 0.979167 0.666667
vt 0.958333 0.750000
vt 0.979167 0.750000
vt 0.979167 0.833333
vt 0.979167 0.916667
vt 0.958333 1.000000
vt 0.979167 0.000000
vt 0.979167 0.166667
vt 0.979167 0.250000
vt 0.979167 0.333333
vt 0.979167 0.416667
vt 0.958333 0.416667
vt 1.000000 0.500000
vt 1.000000 0.583333
vt 1.000000 0.666667
vt 1.000000 0.750000
vt 1.000000 0.833333
vt 1.000000 0.916667
vt 0.979167 1.000000
vt 1.000000 0.000000
vt 0.979167 0.083333
vt 1.000000 0.083333
vt 1.000000 0.166667
vt 1.000000 0.250000
vt 1.000000 0.416667
vt 0.020833 0.500000
vt 0.000000 0.583333
vt 0.000000 0.500000
vt 0.020833 0.666667
vt 0.000000 0.666667
vt 0.020833 0.750000
vt 0.000000 0.750000
vt 0.000000 0.833333
vt 0.020833 0.833333
vt 0.000000 0.916667
vt 0.020833 0.916667
vt 0.000000 1.000000
vt 0.000000 0.000000
vt 0.020833 0.083333
vt 0.000000 0.083333
vt 0.000000 0.166667
vt 0.020833 0.250000
vt 0.000000 0.250000
vt 0.000000 0.333333
vt 0.020833 0.333333
vt 0.000000 0.416667
vt 0.041667 0.583333
vt 0.020833 0.583333
vt 0.041667 0.750000
vt 0.041667 0.833333
vt 0.041667 0.916667
vt 0.020833 1.000000
vt 0.041667 0.000000
vt 0.020833 0.000000
vt 0.041667 0.083333
vt 0.020833 0.166667
vt 0.041667 0.166667
vt 0.041667 0.250000
vt 0.041667 0.333333
vt 0.020833 0.416667
vt 0.041667 0.416667
vt 0.062500 0.500000
vt 0.041667 0.500000
vt 0.062500 0.666667
vt 0.041667 0.666667
vt 0.062500 0.750000
vt 0.062500 0.833333
vt 0.062500 0.916667
vt 0.041667 1.000000
vt 0.062500 0.000000
vt 0.062500 0.083333
vt 0.062500 0.250000
vt 0.062500 0.333333
vt 0.062500 0.416667
vt 0.083333 0.500000
vt 0.062500 0.583333
vt 0.083333 0.583333
vt 0.083333 0.666667
vt 0.083333 0.750000
vt 0.083333 0.833333
vt 0.083333 0.916667
vt 0.062500 1.000000
vt 0.083333 0.000000
vt 0.083333 0.166667
vt 0.062500 0.166667
vt 0.083333 0.250000
vt 0.083333 0.333333
vt 0.083333 0.416667
vt 0.104167 0.500000
vt 0.104167 0.583333
vt 0.104167 0.750000
vt 0.104167 0.833333
vt 0.104167 1.000000
vt 0.083333 1.000000
vt 0.104167 0.000000
vt 0.083333 0.083333
vt 0.104167 0.166667
vt 0.104167 0.250000
vt 0.104167 0.416667
vt 0.125000 0.500000
vt 0.125000 0.666667
vt 0.104167 0.666667
vt 0.125000 0.750000
vt 0.125000 0.833333
vt 0.104167 0.916667
vt 0.125000 0.916667
vt 0.125000 0.083333
vt 0.104167 0.083333
vt 0.125000 0.166667
vt 0.125000 0.250000
vt 0.104167 0.333333
vt 0.125000 0.416667
vt 0.145833 0.583333
vt 0.125000 0.583333
vt 0.145833 0.666667
vt 0.145833 0.750000
vt 0.145833 0.833333
vt 0.145833 0.916667
vt 0.125000 1.000000
vt 0.145833 0.000000
vt 0.125000 0.000000
vt 0.145833 0.083333
vt 0.145833 0.166667
vt 0.145833 0.333333
vt 0.125000 0.333333
vt 0.145833 0.416667
vt 0.145833 0.500000
vt 0.166667 0.583333
vt 0.166667 0.666667
vt 0.166667 0.750000
vt 0.166667 0.916667
vt 0.145833 1.000000
vt 0.166667 0.000000
vt 0.166667 0.166667
vt 0.166667 0.250000
vt 0.145833 0.250000
vt 0.166667 0.333333
vt 0.166667 0.416667
vt 0.187500 0.500000
vt 0.166667 0.500000
vt 0.187500 0.583333
vt 0.187500 0.750000
vt 0.166667 0.833333
vt 0.187500 0.916667
vt 0.166667 1.000000
vt 0.187500 0.083333
vt 0.166667 0.083333
vt 0.187500 0.166667
vt 0.187500 0.250000
vt 0.187500 0.333333
vt 0.187500 0.416667
vt 0.208333 0.583333
vt 0.208333 0.666667
vt 0.187500 0.666667
vt 0.208333 0.750000
vt 0.187500 0.833333
vt 0.208333 0.833333
vt 0.208333 0.916667
vt 0.187500 1.000000
vt 0.208333 0.000000
vt 0.187500 0.000000
vt 0.208333 0.083333
vt 0.208333 0.166667
vt 0.208333 0.333333
vt 0.208333 0.416667
vt 0.208333 0.500000
vt 0.229167 0.583333
vt 0.229167 0.666667
vt 0.229167 0.750000
vt 0.229167 0.833333
vt 0.229167 1.000000
vt 0.208333 1.000000
vt 0.229167 0.000000
vt 0.229167 0.083333
vt 0.229167 0.166667
vt 0.208333 0.250000
vt 0.229167 0.250000
vt 0.229167 0.333333
vt 0.229167 0.416667
vt 0.250000 0.500000
vt 0.229167 0.500000
vt 0.250000 0.583333
vt 0.250000 0.750000
vt 0.250000 0.916667
vt 0.229167 0.916667
vt 0.250000 0.000000
vt 0.250000 0.083333
vt 0.250000 0.166667
vt 0.250000 0.250000
vt 0.250000 0.416667
vt 0.270833 0.583333
vt 0.270833 0.666667
vt 0.250000 0.666667
vt 0.270833 0.750000
vt 0.250000 0.833333
vt 0.270833 0.833333
vt 0.270833 0.916667
vt 0.250000 1.000000
vt 0.270833 0.000000
vt 0.270833 0.166667
vt 0.270833 0.250000
vt 0.250000 0.333333
vt 0.270833 0.333333
vt 0.270833 0.416667
vt 0.291667 0.500000
vt 0.270833 0.500000
vt 0.291667 0.583333
vt 0.291667 0.666667
vt 0.291667 0.833333
vt 0.291667 0.916667
vt 0.270833 1.000000
vt 0.291667 0.000000
vt 0.270833 0.083333
vt 0.291667 0.083333
vt 0.291667 0.166667
vt 0.291667 0.250000
vt 0.291667 0.416667
vt 0.312500 0.500000
vt 0.312500 0.583333
vt 0.312500 0.750000
vt 0.291667 0.750000
vt 0.312500 0.833333
vt 0.312500 0.916667
vt 0.291667 1.000000
vt 0.312500 0.000000
vt 0.312500 0.166667
vt 0.312500 0.333333
vt 0.291667 0.333333
vt 0.312500 0.416667
vt 0.333333 0.500000
vt 0.333333 0.583333
vt 0.312500 0.666667
vt 0.333333 0.666667
vt 0.333333 0.750000
vt 0.333333 0.916667
vt 0.333333 1.000000
vt 0.312500 1.000000
vt 0.333333 0.000000
vt 0.312500 0.083333
vt 0.333333 0.166667
vt 0.312500 0.250000
vt 0.333333 0.250000
vt 0.333333 0.416667
vt 0.354167 0.500000
vt 0.354167 0.583333
vt 0.354167 0.666667
vt 0.354167 0.750000
vt 0.333333 0.833333
vt 0.354167 0.833333
vt 0.354167 0.916667
vt 0.354167 0.083333
vt 0.333333 0.083333
vt 0.354167 0.166667
vt 0.354167 0.333333
vt 0.333333 0.333333
vt 0.354167 0.416667
vt 0.375000 0.500000
vt 0.375000 0.666667
vt 0.375000 0.750000
vt 0.375000 0.833333
vt 0.375000 1.000000
vt 0.354167 1.000000
vt 0.375000 0.000000
vt 0.354167 0.000000
vt 0.375000 0.166667
vt 0.354167 0.250000
vt 0.375000 0.250000
vt 0.375000 0.333333
vt 0.375000 0.416667
vt 0.395833 0.500000
vt 0.375000 0.583333
vt 0.395833 0.583333
vt 0.395833 0.666667
vt 0.395833 0.750000
vt 0.395833 0.833333
vt 0.375000 0.916667
vt 0.395833 0.916667
vt 0.395833 0.000000
vt 0.375000 0.083333
vt 0.395833 0.166667
vt 0.395833 0.250000
vt 0.395833 0.333333
vt 0.395833 0.416667
vt 0.416667 0.583333
vt 0.416667 0.750000
vt 0.416667 0.833333
vt 0.416667 0.916667
vt 0.395833 1.000000
vt 0.416667 0.000000
vt 0.395833 0.083333
vt 0.416667 0.083333
vt 0.416667 0.166667
vt 0.416667 0.333333
vt 0.416667 0.416667
vt 0.416667 0.500000
vt 0.437500 0.583333
vt 0.437500 0.666667
vt 0.416667 0.666667
vt 0.437500 0.750000
vt 0.437500 0.833333
vt 0.437500 0.916667
vt 0.416667 1.000000
vt 0.437500 0.000000
vt 0.437500 0.083333
vt 0.437500 0.166667
vt 0.416667 0.250000
vt 0.437500 0.250000
vt 0.437500 0.333333
vt 0.437500 0.416667
vt 0.458333 0.500000
vt 0.437500 0.500000
vt 0.458333 0.666667
vt 0.458333 0.833333
vt 0.458333 0.916667
vt 0.437500 1.000000
vt 0.458333 0.000000
vt 0.458333 0.083333
vt 0.458333 0.166667
vt 0.458333 0.333333
vt 0.479167 0.500000
vt 0.458333 0.583333
vt 0.479167 0.666667
vt 0.479167 0.750000
vt 0.458333 0.750000
vt 0.479167 0.833333
vt 0.479167 0.916667
vt 0.458333 1.000000
vt 0.479167 0.000000
vt 0.479167 0.083333
vt 0.479167 0.250000
vt 0.458333 0.250000
vt 0.479167 0.333333
vt 0.458333 0.416667
vt 0.479167 0.416667
vt 0.479167 0.583333
vt 0.479167 1.000000
vt 0.479167 0.166667
vt 0.875000 0.500000
vt 0.875000 0.666667
vt 0.875000 1.000000
vt 0.875000 0.333333
vt 1.000000 1.000000
vt 1.000000 0.333333
s 0
f 1/1/1 14/2/1 2/3/1
f 14/2/2 3/4/2 2/3/2
f 3/4/3 16/5/3 4/6/3
f 16/5/4 5/7/4 4/6/4
f 5/7/5 18/8/5 6/9/5
f 18/8/6 7/10/6 6/9/6
f 19/11/7 8/12/7 7/13/7
f 8/12/8 21/14/8 9/15/8
f 9/15/9 22/16/9 10/17/9
f 10/17/10 23/18/10 11/19/10
f 11/19/11 24/20/11 12/21/11
f 24/20/12 1/1/12 12/21/12
f 25/22/13 14/2/13 13/23/13
f 26/24/14 15/25/14 14/2/14
f 27/26/15 16/5/15 15/25/15
f 16/5/16 29/27/16 17/28/16
f 29/27/17 18/8/17 17/28/17
f 30/29/18 19/30/18 18/8/18
f 31/31/19 20/32/19 19/11/19
f 32/33/20 21/14/20 20/32/20
f 33/34/21 22/16/21 21/14/21
f 34/35/22 23/18/22 22/16/22
f 23/18/23 36/36/23 24/20/23
f 24/20/24 25/22/24 13/23/24
f 37/37/25 26/24/25 25/22/25
f 38/38/26 27/26/26 26/24/26
f 27/26/27 40/39/27 28/40/27
f 28/40/28 41/41/28 29/27/28
f 41/41/29 30/29/29 29/27/29
f 42/42/30 31/43/30 30/29/30
f 31/31/31 44/44/31 32/33/31
f 44/44/32 33/34/32 32/33/32
f 45/45/33 34/35/33 33/34/33
f 46/46/34 35/47/34 34/35/34
f 35/47/35 48/48/35 36/36/35
f 48/48/36 25/22/36 36/36/36
f 49/49/37 38/38/37 37/37/37
f 50/50/38 39/51/38 38/38/38
f 39/51/39 52/52/39 40/39/39
f 40/39/40 53/53/40 41/41/40
f 53/53/41 42/42/41 41/41/41
f 54/54/42 43/55/42 42/42/42
f 43/56/43 56/57/43 44/44/43
f 56/57/44 45/45/44 44/44/44
f 45/45/45 58/58/45 46/46/45
f 58/58/46 47/59/46 46/46/46
f 59/60/47 48/48/47 47/59/47
f 48/48/48 49/49/48 37/37/48
f 61/61/49 50/50/49 49/49/49
f 50/50/50 63/62/50 51/63/50
f 51/63/51 64/64/51 52/52/51
f 64/64/52 53/53/52 52/52/52
f 53/53/53 66/65/53 54/54/53
f 66/65/54 55/66/54 54/54/54
f 55/67/55 68/68/55 56/57/55
f 68/68/56 57/69/56 56/57/56
f 57/69/57 70/70/57 58/58/57
f 70/70/58 59/60/58 58/58/58
f 71/71/59 60/72/59 59/60/59
f 72/73/60 49/49/60 60/72/60
f 73/74/61 62/75/61 61/61/61
f 62/75/62 75/76/62 63/62/62
f 75/76/63 64/64/63 63/62/63
f 76/77/64 65/78/64 64/64/64
f 77/79/65 66/65/65 65/78/65
f 66/65/66 79/80/66 67/81/66
f 79/82/67 68/68/67 67/83/67
f 80/84/68 69/85/68 68/68/68
f 69/85/69 82/86/69 70/70/69
f 70/70/70 83/87/70 71/71/70
f 83/87/71 72/73/71 71/71/71
f 72/73/72 73/74/72 61/61/72
f 73/74/73 86/88/73 74/89/73
f 86/88/74 75/76/74 74/89/74
f 87/90/75 76/77/75 75/76/75
f 88/91/76 77/79/76 76/77/76
f 89/92/77 78/93/77 77/79/77
f 90/94/78 79/80/78 78/93/78
f 91/95/79 80/84/79 79/82/79
f 92/96/80 81/97/80 80/84/80
f 81/97/81 94/98/81 82/86/81
f 82/86/82 95/99/82 83/87/82
f 83/87/83 96/100/83 84/101/83
f 96/100/84 73/74/84 84/101/84
f 85/102/85 98/103/85 86/88/85
f 86/88/86 99/104/86 87/90/86
f 87/90/87 100/105/87 88/91/87
f 88/91/88 101/106/88 89/92/88
f 89/92/89 102/107/89 90/94/89
f 102/107/90 91/108/90 90/94/90
f 103/109/91 92/96/91 91/95/91
f 104/110/92 93/111/92 92/96/92
f 105/112/93 94/98/93 93/111/93
f 106/113/94 95/99/94 94/98/94
f 107/114/95 96/100/95 95/99/95
f 108/115/96 85/102/96 96/100/96
f 109/116/97 98/103/97 97/117/97
f 110/118/98 99/104/98 98/103/98
f 111/119/99 100/105/99 99/104/99
f 112/120/100 101/106/100 100/105/100
f 113/121/101 102/107/101 101/106/101
f 114/122/102 103/123/102 102/107/102
f 115/124/103 104/110/103 103/109/103
f 104/110/104 117/125/104 105/112/104
f 105/112/105 118/126/105 106/113/105
f 118/126/106 107/114/106 106/113/106
f 107/114/107 120/127/107 108/115/107
f 120/127/108 97/117/108 108/115/108
f 109/116/109 122/128/109 110/118/109
f 122/128/110 111/119/110 110/118/110
f 123/129/111 112/120/111 111/119/111
f 124/130/112 113/121/112 112/120/112
f 113/121/113 126/131/113 114/122/113
f 114/122/114 127/132/114 115/133/114
f 127/134/115 116/135/115 115/124/115
f 128/136/116 117/125/116 116/135/116
f 129/137/117 118/126/117 117/125/117
f 130/138/118 119/139/118 118/126/118
f 131/140/119 120/127/119 119/139/119
f 132/141/120 109/116/120 120/127/120
f 121/142/121 134/143/121 122/128/121
f 134/143/122 123/129/122 122/128/122
f 135/144/123 124/130/123 123/129/123
f 136/145/124 125/146/124 124/130/124
f 137/147/125 126/131/125 125/146/125
f 138/148/126 127/132/126 126/131/126
f 139/149/127 128/136/127 127/134/127
f 128/136/128 141/150/128 129/137/128
f 129/137/129 142/151/129 130/138/129
f 130/138/130 143/152/130 131/140/130
f 143/152/131 132/141/131 131/140/131
f 144/153/132 121/142/132 132/141/132
f 145/154/133 134/143/133 133/155/133
f 146/156/134 135/144/134 134/143/134
f 147/157/135 136/145/135 135/144/135
f 136/145/136 149/158/136 137/147/136
f 137/147/137 150/159/137 138/148/137
f 138/148/138 151/160/138 139/161/138
f 151/162/139 140/163/139 139/149/139
f 152/164/140 141/150/140 140/163/140
f 153/165/141 142/151/141 141/150/141
f 154/166/142 143/152/142 142/151/142
f 143/152/143 156/167/143 144/153/143
f 156/167/144 133/155/144 144/153/144
f 157/168/145 146/156/145 145/154/145
f 146/156/146 159/169/146 147/157/146
f 147/157/147 160/170/147 148/171/147
f 160/170/148 149/158/148 148/171/148
f 161/172/149 150/159/149 149/158/149
f 162/173/150 151/160/150 150/159/150
f 163/174/151 152/164/151 151/162/151
f 164/175/152 153/165/152 152/164/152
f 153/165/153 166/176/153 154/166/153
f 166/176/154 155/177/154 154/166/154
f 167/178/155 156/167/155 155/177/155
f 156/167/156 157/168/156 145/154/156
f 169/179/157 158/180/157 157/168/157
f 170/181/158 159/169/158 158/180/158
f 171/182/159 160/170/159 159/169/159
f 172/183/160 161/172/160 160/170/160
f 161/172/161 174/184/161 162/173/161
f 174/184/162 163/185/162 162/173/162
f 163/174/163 176/186/163 164/175/163
f 176/186/164 165/187/164 164/175/164
f 177/188/165 166/176/165 165/187/165
f 166/176/166 179/189/166 167/178/166
f 167/178/167 180/190/167 168/191/167
f 180/190/168 157/168/168 168/191/168
f 181/192/169 170/181/169 169/179/169
f 182/193/170 171/182/170 170/181/170
f 171/182/171 184/194/171 172/183/171
f 184/194/172 173/195/172 172/183/172
f 185/196/173 174/184/173 173/195/173
f 186/197/174 175/198/174 174/184/174
f 175/199/175 188/200/175 176/186/175
f 188/200/176 177/188/176 176/186/176
f 177/188/177 190/201/177 178/202/177
f 190/201/178 179/189/178 178/202/178
f 191/203/179 180/190/179 179/189/179
f 192/204/180 169/179/180 180/190/180
f 193/205/181 182/193/181 181/192/181
f 182/193/182 195/206/182 183/207/182
f 183/207/183 196/208/183 184/194/183
f 196/208/184 185/196/184 184/194/184
f 197/209/185 186/197/185 185/196/185
f 198/210/186 187/211/186 186/197/186
f 199/212/187 188/200/187 187/213/187
f 200/214/188 189/215/188 188/200/188
f 189/215/189 202/216/189 190/201/189
f 202/216/190 191/203/190 190/201/190
f 203/217/191 192/204/191 191/203/191
f 192/204/192 193/205/192 181/192/192
f 205/218/193 194/219/193 193/205/193
f 194/219/194 207/220/194 195/206/194
f 207/220/195 196/208/195 195/206/195
f 196/208/196 209/221/196 197/209/196
f 197/209/197 210/222/197 198/210/197
f 210/222/198 199/223/198 198/210/198
f 211/224/199 200/214/199 199/212/199
f 212/225/200 201/226/200 200/214/200
f 213/227/201 202/216/201 201/226/201
f 214/228/202 203/217/202 202/216/202
f 215/229/203 204/230/203 203/217/203
f 204/230/204 205/218/204 193/205/204
f 205/218/205 218/231/205 206/232/205
f 218/231/206 207/220/206 206/232/206
f 207/220/207 220/233/207 208/234/207
f 208/234/208 221/235/208 209/221/208
f 209/221/209 222/236/209 210/222/209
f 222/236/210 211/237/210 210/222/210
f 223/238/211 212/225/211 211/224/211
f 224/239/212 213/227/212 212/225/212
f 225/240/213 214/228/213 213/227/213
f 226/241/214 215/229/214 214/228/214
f 215/229/215 228/242/215 216/243/215
f 228/242/216 205/218/216 216/243/216
f 223/244/217 226/244/217 225/244/217
f 239/244/218 240/244/218 229/244/218
f 232/244/218 233/244/218 231/244/218
f 233/244/218 230/244/218 231/244/218
f 233/244/218 234/244/218 230/244/218
f 234/244/218 229/244/218 230/244/218
f 234/244/218 235/244/218 229/244/218
f 235/244/218 239/244/218 229/244/218
f 235/244/218 236/244/218 237/244/218
f 224/244/217 223/244/217 225/244/217
f 239/244/218 235/244/218 237/244/218
f 237/244/218 238/244/218 239/244/218
f 229/245/219 242/246/219 230/247/219
f 230/247/220 243/248/220 231/249/220
f 243/248/221 232/250/221 231/249/221
f 244/251/222 233/252/222 232/250/222
f 245/253/223 234/254/223 233/252/223
f 246/255/224 235/256/224 234/254/224
f 247/257/225 236/258/225 235/259/225
f 236/258/226 249/260/226 237/261/226
f 237/261/227 250/262/227 238/263/227
f 250/262/228 239/264/228 238/263/228
f 251/265/229 240/266/229 239/264/229
f 252/267/230 229/245/230 240/266/230
f 241/268/231 254/269/231 242/246/231
f 254/269/232 243/248/232 242/246/232
f 255/270/233 244/251/233 243/248/233
f 244/251/234 257/271/234 245/253/234
f 245/253/235 258/272/235 246/255/235
f 246/255/236 259/273/236 247/274/236
f 247/257/237 260/275/237 248/276/237
f 248/276/238 261/277/238 249/260/238
f 261/277/239 250/262/239 249/260/239
f 250/262/240 263/278/240 251/265/240
f 263/278/241 252/267/241 251/265/241
f 264/279/242 241/268/242 252/267/242
f 265/280/243 254/269/243 253/281/243
f 254/269/244 267/282/244 255/270/244
f 267/282/245 256/283/245 255/270/245
f 256/283/246 269/284/246 257/271/246
f 269/284/247 258/272/247 257/271/247
f 270/285/248 259/273/248 258/272/248
f 271/286/249 260/275/249 259/287/249
f 272/288/250 261/277/250 260/275/250
f 273/289/251 262/290/251 261/277/251
f 274/291/252 263/278/252 262/290/252
f 275/292/253 264/279/253 263/278/253
f 264/279/254 265/280/254 253/281/254
f 277/293/255 266/294/255 265/280/255
f 278/295/256 267/282/256 266/294/256
f 279/296/257 268/297/257 267/282/257
f 280/298/258 269/284/258 268/297/258
f 281/299/259 270/285/259 269/284/259
f 282/300/260 271/301/260 270/285/260
f 283/302/261 272/288/261 271/286/261
f 272/288/262 285/303/262 273/289/262
f 273/289/263 286/304/263 274/291/263
f 274/291/264 287/305/264 275/292/264
f 275/292/265 288/306/265 276/307/265
f 276/307/266 277/293/266 265/280/266
f 289/308/267 278/295/267 277/293/267
f 290/309/268 279/296/268 278/295/268
f 291/310/269 280/298/269 279/296/269
f 292/311/270 281/299/270 280/298/270
f 293/312/271 282/300/271 281/299/271
f 294/313/272 283/314/272 282/300/272
f 295/315/273 284/316/273 283/302/273
f 296/317/274 285/303/274 284/316/274
f 297/318/275 286/304/275 285/303/275
f 298/319/276 287/305/276 286/304/276
f 287/305/277 300/320/277 288/306/277
f 300/320/278 277/293/278 288/306/278
f 301/321/6 290/322/6 289/323/6
f 290/322/5 303/324/5 291/325/5
f 291/325/4 304/326/4 292/327/4
f 304/326/3 293/328/3 292/327/3
f 305/329/2 294/330/2 293/328/2
f 306/331/1 295/332/1 294/330/1
f 295/333/12 308/334/12 296/335/12
f 308/334/11 297/336/11 296/335/11
f 297/336/10 310/337/10 298/338/10
f 310/337/9 299/339/9 298/338/9
f 311/340/8 300/341/8 299/339/8
f 300/341/7 301/321/7 289/323/7
f 301/321/18 314/342/18 302/343/18
f 314/342/17 303/324/17 302/343/17
f 303/324/16 316/344/16 304/326/16
f 304/326/15 317/345/15 305/329/15
f 305/329/14 318/346/14 306/331/14
f 318/346/13 307/347/13 306/331/13
f 319/348/24 308/334/24 307/349/24
f 320/350/23 309/351/23 308/334/23
f 321/352/22 310/337/22 309/351/22
f 322/353/21 311/340/21 310/337/21
f 323/354/20 312/355/20 311/340/20
f 324/356/19 301/321/19 312/355/19
f 325/357/30 314/342/30 313/358/30
f 314/342/29 327/359/29 315/360/29
f 315/360/28 328/361/28 316/344/28
f 328/361/27 317/345/27 316/344/27
f 329/362/26 318/346/26 317/345/26
f 330/363/25 319/364/25 318/346/25
f 331/365/36 320/350/36 319/348/36
f 332/366/35 321/352/35 320/350/35
f 321/352/34 334/367/34 322/353/34
f 334/367/33 323/354/33 322/353/33
f 335/368/32 324/356/32 323/354/32
f 336/369/31 313/358/31 324/356/31
f 337/370/42 326/371/42 325/357/42
f 338/372/41 327/359/41 326/371/41
f 339/373/40 328/361/40 327/359/40
f 340/374/39 329/362/39 328/361/39
f 341/375/38 330/363/38 329/362/38
f 342/376/37 331/377/37 330/363/37
f 343/378/48 332/366/48 331/365/48
f 332/366/47 345/379/47 333/380/47
f 333/380/46 346/381/46 334/367/46
f 334/367/45 347/382/45 335/368/45
f 335/368/44 348/383/44 336/369/44
f 336/369/43 337/370/43 325/357/43
f 349/384/54 338/372/54 337/370/54
f 350/385/53 339/373/53 338/372/53
f 339/373/52 352/386/52 340/374/52
f 352/386/51 341/375/51 340/374/51
f 353/387/50 342/376/50 341/375/50
f 342/376/49 355/388/49 343/389/49
f 355/390/60 344/391/60 343/378/60
f 344/391/59 357/392/59 345/379/59
f 345/379/58 358/393/58 346/381/58
f 358/393/57 347/382/57 346/381/57
f 347/382/56 360/394/56 348/383/56
f 348/383/55 349/384/55 337/370/55
f 361/395/66 350/385/66 349/384/66
f 350/385/65 363/396/65 351/397/65
f 351/397/64 364/398/64 352/386/64
f 352/386/63 365/399/63 353/387/63
f 365/399/62 354/400/62 353/387/62
f 366/401/61 355/388/61 354/400/61
f 355/390/72 368/402/72 356/403/72
f 356/403/71 369/404/71 357/392/71
f 357/392/70 370/405/70 358/393/70
f 370/405/69 359/406/69 358/393/69
f 359/406/68 372/407/68 360/394/68
f 360/394/67 361/395/67 349/384/67
f 361/395/78 374/408/78 362/409/78
f 374/408/77 363/396/77 362/409/77
f 375/410/76 364/398/76 363/396/76
f 376/411/75 365/399/75 364/398/75
f 377/412/74 366/401/74 365/399/74
f 378/413/73 367/414/73 366/401/73
f 379/415/84 368/402/84 367/416/84
f 380/417/83 369/404/83 368/402/83
f 381/418/82 370/405/82 369/404/82
f 370/405/81 383/419/81 371/420/81
f 383/419/80 372/407/80 371/420/80
f 384/421/79 361/395/79 372/407/79
f 373/422/90 386/423/90 374/408/90
f 386/423/89 375/410/89 374/408/89
f 387/424/88 376/411/88 375/410/88
f 388/425/87 377/412/87 376/411/87
f 377/412/86 390/426/86 378/413/86
f 390/426/85 379/427/85 378/413/85
f 391/428/96 380/417/96 379/415/96
f 380/417/95 393/429/95 381/418/95
f 381/418/94 394/430/94 382/431/94
f 382/431/93 395/432/93 383/419/93
f 395/432/92 384/421/92 383/419/92
f 396/433/91 373/422/91 384/421/91
f 397/434/102 386/423/102 385/435/102
f 398/436/101 387/424/101 386/423/101
f 387/424/100 400/437/100 388/425/100
f 400/437/99 389/438/99 388/425/99
f 389/438/98 402/439/98 390/426/98
f 402/439/97 391/440/97 390/426/97
f 391/428/108 404/441/108 392/442/108
f 404/441/107 393/429/107 392/442/107
f 405/443/106 394/430/106 393/429/106
f 406/444/105 395/432/105 394/430/105
f 407/445/104 396/433/104 395/432/104
f 408/446/103 385/435/103 396/433/103
f 397/434/114 410/447/114 398/436/114
f 398/436/113 411/448/113 399/449/113
f 411/448/112 400/437/112 399/449/112
f 412/450/111 401/451/111 400/437/111
f 413/452/110 402/439/110 401/451/110
f 414/453/109 403/454/109 402/439/109
f 415/455/120 404/441/120 403/456/120
f 416/457/119 405/443/119 404/441/119
f 417/458/118 406/444/118 405/443/118
f 406/444/117 419/459/117 407/445/117
f 419/459/116 408/446/116 407/445/116
f 420/460/115 397/434/115 408/446/115
f 409/461/126 422/462/126 410/447/126
f 410/447/125 423/463/125 411/448/125
f 423/463/124 412/450/124 411/448/124
f 424/464/123 413/452/123 412/450/123
f 425/465/122 414/453/122 413/452/122
f 414/453/121 427/466/121 415/467/121
f 427/468/132 416/457/132 415/455/132
f 428/469/131 417/458/131 416/457/131
f 429/470/130 418/471/130 417/458/130
f 430/472/129 419/459/129 418/471/129
f 431/473/128 420/460/128 419/459/128
f 432/474/127 409/461/127 420/460/127
f 433/475/138 422/462/138 421/476/138
f 434/477/137 423/463/137 422/462/137
f 423/463/136 436/478/136 424/464/136
f 436/478/135 425/465/135 424/464/135
f 425/465/134 438/479/134 426/480/134
f 438/479/133 427/466/133 426/480/133
f 439/481/144 428/469/144 427/468/144
f 440/482/143 429/470/143 428/469/143
f 441/483/142 430/472/142 429/470/142
f 442/484/141 431/473/141 430/472/141
f 431/473/140 444/485/140 432/474/140
f 444/485/139 421/476/139 432/474/139
f 433/475/150 446/486/150 434/477/150
f 434/477/149 447/487/149 435/488/149
f 447/487/148 436/478/148 435/488/148
f 448/489/147 437/490/147 436/478/147
f 449/491/146 438/479/146 437/490/146
f 450/492/145 439/493/145 438/479/145
f 451/494/156 440/482/156 439/481/156
f 440/482/155 453/495/155 441/483/155
f 441/483/154 454/496/154 442/484/154
f 454/496/153 443/497/153 442/484/153
f 455/498/152 444/485/152 443/497/152
f 456/499/151 433/475/151 444/485/151
f 457/500/162 446/486/162 445/501/162
f 458/502/161 447/487/161 446/486/161
f 459/503/160 448/489/160 447/487/160
f 448/489/159 461/504/159 449/491/159
f 449/491/158 462/505/158 450/492/158
f 462/505/157 451/506/157 450/492/157
f 463/507/168 452/508/168 451/494/168
f 464/509/167 453/495/167 452/508/167
f 465/510/166 454/496/166 453/495/166
f 466/511/165 455/498/165 454/496/165
f 455/498/164 468/512/164 456/499/164
f 456/499/163 457/500/163 445/501/163
f 469/513/174 458/502/174 457/500/174
f 470/514/173 459/503/173 458/502/173
f 459/503/172 472/515/172 460/516/172
f 472/515/171 461/504/171 460/516/171
f 473/517/170 462/505/170 461/504/170
f 474/518/169 463/519/169 462/505/169
f 475/520/180 464/509/180 463/507/180
f 464/509/179 477/521/179 465/510/179
f 477/521/178 466/511/178 465/510/178
f 466/511/177 479/522/177 467/523/177
f 467/523/176 480/524/176 468/512/176
f 480/524/175 457/500/175 468/512/175
f 481/525/186 470/514/186 469/513/186
f 482/526/185 471/527/185 470/514/185
f 483/528/184 472/515/184 471/527/184
f 484/529/183 473/517/183 472/515/183
f 473/517/182 486/530/182 474/518/182
f 474/518/181 487/531/181 475/532/181
f 487/533/192 476/534/192 475/520/192
f 476/534/191 489/535/191 477/521/191
f 489/535/190 478/536/190 477/521/190
f 490/537/189 479/522/189 478/536/189
f 479/522/188 492/538/188 480/524/188
f 480/524/187 481/525/187 469/513/187
f 493/539/198 482/526/198 481/525/198
f 494/540/197 483/528/197 482/526/197
f 495/541/196 484/529/196 483/528/196
f 496/542/195 485/543/195 484/529/195
f 497/544/194 486/530/194 485/543/194
f 498/545/193 487/531/193 486/530/193
f 487/533/204 500/546/204 488/547/204
f 488/547/203 501/548/203 489/535/203
f 501/548/202 490/537/202 489/535/202
f 490/537/201 503/549/201 491/550/201
f 491/550/200 504/551/200 492/538/200
f 492/538/199 493/539/199 481/525/199
f 505/552/210 494/540/210 493/539/210
f 494/540/209 507/553/209 495/541/209
f 495/541/208 508/554/208 496/542/208
f 496/542/207 509/555/207 497/544/207
f 509/555/206 498/545/206 497/544/206
f 498/545/205 511/556/205 499/557/205
f 511/558/216 500/546/216 499/559/216
f 500/546/215 513/560/215 501/548/215
f 513/560/214 502/561/214 501/548/214
f 514/562/213 503/549/213 502/561/213
f 515/563/212 504/551/212 503/549/212
f 516/564/211 493/539/211 504/551/211
f 517/565/279 506/566/279 505/552/279
f 518/567/280 507/553/280 506/566/280
f 519/568/281 508/554/281 507/553/281
f 520/569/282 509/555/282 508/554/282
f 521/570/283 510/571/283 509/555/283
f 522/572/284 511/556/284 510/571/284
f 523/573/285 512/574/285 511/558/285
f 512/574/286 525/575/286 513/560/286
f 513/560/287 526/576/287 514/562/287
f 514/562/288 527/577/288 515/563/288
f 515/563/289 528/578/289 516/564/289
f 528/578/290 505/552/290 516/564/290
f 517/565/224 530/579/224 518/567/224
f 530/579/223 519/568/223 518/567/223
f 519/568/222 532/580/222 520/569/222
f 532/580/221 521/570/221 520/569/221
f 533/581/220 522/572/220 521/570/220
f 534/582/219 523/583/219 522/572/219
f 535/584/230 524/585/230 523/573/230
f 536/586/229 525/575/229 524/585/229
f 537/587/228 526/576/228 525/575/228
f 526/576/227 539/588/227 527/577/227
f 527/577/226 540/589/226 528/578/226
f 540/589/225 517/565/225 528/578/225
f 529/590/236 542/591/236 530/579/236
f 530/579/235 543/592/235 531/593/235
f 531/593/234 544/594/234 532/580/234
f 532/580/233 545/595/233 533/581/233
f 545/595/232 534/582/232 533/581/232
f 546/596/231 535/597/231 534/582/231
f 547/598/242 536/586/242 535/584/242
f 548/599/241 537/587/241 536/586/241
f 549/600/240 538/601/240 537/587/240
f 550/602/239 539/588/239 538/601/239
f 551/603/238 540/589/238 539/588/238
f 552/604/237 529/590/237 540/589/237
f 553/605/248 542/591/248 541/606/248
f 542/591/247 555/607/247 543/592/247
f 555/607/246 544/594/246 543/592/246
f 544/594/245 557/608/245 545/595/245
f 545/595/244 558/609/244 546/596/244
f 558/609/243 547/610/243 546/596/243
f 559/611/254 548/599/254 547/598/254
f 560/612/253 549/600/253 548/599/253
f 561/613/252 550/602/252 549/600/252
f 550/602/251 563/614/251 551/603/251
f 563/614/250 552/604/250 551/603/250
f 552/604/249 553/605/249 541/606/249
f 565/615/260 554/616/260 553/605/260
f 554/616/259 567/617/259 555/607/259
f 555/607/258 568/618/258 556/619/258
f 568/618/257 557/608/257 556/619/257
f 569/620/256 558/609/256 557/608/256
f 570/621/255 559/622/255 558/609/255
f 571/623/266 560/612/266 559/611/266
f 572/624/265 561/613/265 560/612/265
f 561/613/264 574/625/264 562/626/264
f 562/626/263 575/627/263 563/614/263
f 575/627/262 564/628/262 563/614/262
f 576/629/261 553/605/261 564/628/261
f 565/615/272 2/3/272 566/630/272
f 2/3/271 567/617/271 566/630/271
f 3/4/270 568/618/270 567/617/270
f 568/618/269 5/7/269 569/620/269
f 5/7/268 570/621/268 569/620/268
f 6/9/267 571/631/267 570/621/267
f 7/13/278 572/624/278 571/623/278
f 8/12/277 573/632/277 572/624/277
f 9/15/276 574/625/276 573/632/276
f 10/17/275 575/627/275 574/625/275
f 575/627/274 12/21/274 576/629/274
f 12/21/273 565/615/273 576/629/273
f 227/244/217 226/244/217 221/244/217
f 221/244/217 226/244/217 223/244/217
f 1/1/1 13/23/1 14/2/1
f 222/244/217 221/244/217 223/244/217
f 228/244/217 227/244/217 217/244/217
f 220/244/217 217/244/217 227/244/217
f 218/244/217 217/244/217 219/244/217
f 219/244/217 217/244/217 220/244/217
f 221/244/217 220/244/217 227/244/217
f 14/2/2 15/25/2 3/4/2
f 3/4/3 15/25/3 16/5/3
f 16/5/4 17/28/4 5/7/4
f 5/7/5 17/28/5 18/8/5
f 18/8/6 19/30/6 7/10/6
f 19/11/7 20/32/7 8/12/7
f 8/12/8 20/32/8 21/14/8
f 9/15/9 21/14/9 22/16/9
f 10/17/10 22/16/10 23/18/10
f 11/19/11 23/18/11 24/20/11
f 24/20/12 13/23/12 1/1/12
f 25/22/13 26/24/13 14/2/13
f 26/24/14 27/26/14 15/25/14
f 27/26/15 28/40/15 16/5/15
f 16/5/16 28/40/16 29/27/16
f 29/27/17 30/29/17 18/8/17
f 30/29/18 31/43/18 19/30/18
f 31/31/19 32/33/19 20/32/19
f 32/33/20 33/34/20 21/14/20
f 33/34/21 34/35/21 22/16/21
f 34/35/22 35/47/22 23/18/22
f 23/18/23 35/47/23 36/36/23
f 24/20/24 36/36/24 25/22/24
f 37/37/25 38/38/25 26/24/25
f 38/38/26 39/51/26 27/26/26
f 27/26/27 39/51/27 40/39/27
f 28/40/28 40/39/28 41/41/28
f 41/41/29 42/42/29 30/29/29
f 42/42/30 43/55/30 31/43/30
f 31/31/31 43/56/31 44/44/31
f 44/44/32 45/45/32 33/34/32
f 45/45/33 46/46/33 34/35/33
f 46/46/34 47/59/34 35/47/34
f 35/47/35 47/59/35 48/48/35
f 48/48/36 37/37/36 25/22/36
f 49/49/37 50/50/37 38/38/37
f 50/50/38 51/63/38 39/51/38
f 39/51/39 51/63/39 52/52/39
f 40/39/40 52/52/40 53/53/40
f 53/53/41 54/54/41 42/42/41
f 54/54/42 55/66/42 43/55/42
f 43/56/43 55/67/43 56/57/43
f 56/57/44 57/69/44 45/45/44
f 45/45/45 57/69/45 58/58/45
f 58/58/46 59/60/46 47/59/46
f 59/60/47 60/72/47 48/48/47
f 48/48/48 60/72/48 49/49/48
f 61/61/49 62/75/49 50/50/49
f 50/50/50 62/75/50 63/62/50
f 51/63/51 63/62/51 64/64/51
f 64/64/52 65/78/52 53/53/52
f 53/53/53 65/78/53 66/65/53
f 66/65/54 67/81/54 55/66/54
f 55/67/55 67/83/55 68/68/55
f 68/68/56 69/85/56 57/69/56
f 57/69/57 69/85/57 70/70/57
f 70/70/58 71/71/58 59/60/58
f 71/71/59 72/73/59 60/72/59
f 72/73/60 61/61/60 49/49/60
f 73/74/61 74/89/61 62/75/61
f 62/75/62 74/89/62 75/76/62
f 75/76/63 76/77/63 64/64/63
f 76/77/64 77/79/64 65/78/64
f 77/79/65 78/93/65 66/65/65
f 66/65/66 78/93/66 79/80/66
f 79/82/67 80/84/67 68/68/67
f 80/84/68 81/97/68 69/85/68
f 69/85/69 81/97/69 82/86/69
f 70/70/70 82/86/70 83/87/70
f 83/87/71 84/101/71 72/73/71
f 72/73/72 84/101/72 73/74/72
f 73/74/73 85/102/73 86/88/73
f 86/88/74 87/90/74 75/76/74
f 87/90/75 88/91/75 76/77/75
f 88/91/76 89/92/76 77/79/76
f 89/92/77 90/94/77 78/93/77
f 90/94/78 91/108/78 79/80/78
f 91/95/79 92/96/79 80/84/79
f 92/96/80 93/111/80 81/97/80
f 81/97/81 93/111/81 94/98/81
f 82/86/82 94/98/82 95/99/82
f 83/87/83 95/99/83 96/100/83
f 96/100/84 85/102/84 73/74/84
f 85/102/85 97/117/85 98/103/85
f 86/88/86 98/103/86 99/104/86
f 87/90/87 99/104/87 100/105/87
f 88/91/88 100/105/88 101/106/88
f 89/92/89 101/106/89 102/107/89
f 102/107/90 103/123/90 91/108/90
f 103/109/91 104/110/91 92/96/91
f 104/110/92 105/112/92 93/111/92
f 105/112/93 106/113/93 94/98/93
f 106/113/94 107/114/94 95/99/94
f 107/114/95 108/115/95 96/100/95
f 108/115/96 97/117/96 85/102/96
f 109/116/97 110/118/97 98/103/97
f 110/118/98 111/119/98 99/104/98
f 111/119/99 112/120/99 100/105/99
f 112/120/100 113/121/100 101/106/100
f 113/121/101 114/122/101 102/107/101
f 114/122/102 115/133/102 103/123/102
f 115/124/103 116/135/103 104/110/103
f 104/110/104 116/135/104 117/125/104
f 105/112/105 117/125/105 118/126/105
f 118/126/106 119/139/106 107/114/106
f 107/114/107 119/139/107 120/127/107
f 120/127/108 109/116/108 97/117/108
f 109/116/109 121/142/109 122/128/109
f 122/128/110 123/129/110 111/119/110
f 123/129/111 124/130/111 112/120/111
f 124/130/112 125/146/112 113/121/112
f 113/121/113 125/146/113 126/131/113
f 114/122/114 126/131/114 127/132/114
f 127/134/115 128/136/115 116/135/115
f 128/136/116 129/137/116 117/125/116
f 129/137/117 130/138/117 118/126/117
f 130/138/118 131/140/118 119/139/118
f 131/140/119 132/141/119 120/127/119
f 132/141/120 121/142/120 109/116/120
f 121/142/121 133/155/121 134/143/121
f 134/143/122 135/144/122 123/129/122
f 135/144/123 136/145/123 124/130/123
f 136/145/124 137/147/124 125/146/124
f 137/147/125 138/148/125 126/131/125
f 138/148/126 139/161/126 127/132/126
f 139/149/127 140/163/127 128/136/127
f 128/136/128 140/163/128 141/150/128
f 129/137/129 141/150/129 142/151/129
f 130/138/130 142/151/130 143/152/130
f 143/152/131 144/153/131 132/141/131
f 144/153/132 133/155/132 121/142/132
f 145/154/133 146/156/133 134/143/133
f 146/156/134 147/157/134 135/144/134
f 147/157/135 148/171/135 136/145/135
f 136/145/136 148/171/136 149/158/136
f 137/147/137 149/158/137 150/159/137
f 138/148/138 150/159/138 151/160/138
f 151/162/139 152/164/139 140/163/139
f 152/164/140 153/165/140 141/150/140
f 153/165/141 154/166/141 142/151/141
f 154/166/142 155/177/142 143/152/142
f 143/152/143 155/177/143 156/167/143
f 156/167/144 145/154/144 133/155/144
f 157/168/145 158/180/145 146/156/145
f 146/156/146 158/180/146 159/169/146
f 147/157/147 159/169/147 160/170/147
f 160/170/148 161/172/148 149/158/148
f 161/172/149 162/173/149 150/159/149
f 162/173/150 163/185/150 151/160/150
f 163/174/151 164/175/151 152/164/151
f 164/175/152 165/187/152 153/165/152
f 153/165/153 165/187/153 166/176/153
f 166/176/154 167/178/154 155/177/154
f 167/178/155 168/191/155 156/167/155
f 156/167/156 168/191/156 157/168/156
f 169/179/157 170/181/157 158/180/157
f 170/181/158 171/182/158 159/169/158
f 171/182/159 172/183/159 160/170/159
f 172/183/160 173/195/160 161/172/160
f 161/172/161 173/195/161 174/184/161
f 174/184/162 175/198/162 163/185/162
f 163/174/163 175/199/163 176/186/163
f 176/186/164 177/188/164 165/187/164
f 177/188/165 178/202/165 166/176/165
f 166/176/166 178/202/166 179/189/166
f 167/178/167 179/189/167 180/190/167
f 180/190/168 169/179/168 157/168/168
f 181/192/169 182/193/169 170/181/169
f 182/193/170 183/207/170 171/182/170
f 171/182/171 183/207/171 184/194/171
f 184/194/172 185/196/172 173/195/172
f 185/196/173 186/197/173 174/184/173
f 186/197/174 187/211/174 175/198/174
f 175/199/175 187/213/175 188/200/175
f 188/200/176 189/215/176 177/188/176
f 177/188/177 189/215/177 190/201/177
f 190/201/178 191/203/178 179/189/178
f 191/203/179 192/204/179 180/190/179
f 192/204/180 181/192/180 169/179/180
f 193/205/181 194/219/181 182/193/181
f 182/193/182 194/219/182 195/206/182
f 183/207/183 195/206/183 196/208/183
f 196/208/184 197/209/184 185/196/184
f 197/209/185 198/210/185 186/197/185
f 198/210/186 199/223/186 187/211/186
f 199/212/187 200/214/187 188/200/187
f 200/214/188 201/226/188 189/215/188
f 189/215/189 201/226/189 202/216/189
f 202/216/190 203/217/190 191/203/190
f 203/217/191 204/230/191 192/204/191
f 192/204/192 204/230/192 193/205/192
f 205/218/193 206/232/193 194/219/193
f 194/219/194 206/232/194 207/220/194
f 207/220/195 208/234/195 196/208/195
f 196/208/196 208/234/196 209/221/196
f 197/209/197 209/221/197 210/222/197
f 210/222/198 211/237/198 199/223/198
f 211/224/199 212/225/199 200/214/199
f 212/225/200 213/227/200 201/226/200
f 213/227/201 214/228/201 202/216/201
f 214/228/202 215/229/202 203/217/202
f 215/229/203 216/243/203 204/230/203
f 204/230/204 216/243/204 205/218/204
f 205/218/205 217/633/205 218/231/205
f 218/231/206 219/634/206 207/220/206
f 207/220/207 219/634/207 220/233/207
f 208/234/208 220/233/208 221/235/208
f 209/221/209 221/235/209 222/236/209
f 222/236/210 223/635/210 211/237/210
f 223/238/211 224/239/211 212/225/211
f 224/239/212 225/240/212 213/227/212
f 225/240/213 226/241/213 214/228/213
f 226/241/214 227/636/214 215/229/214
f 215/229/215 227/636/215 228/242/215
f 228/242/216 217/633/216 205/218/216
f 229/245/219 241/268/219 242/246/219
f 230/247/220 242/246/220 243/248/220
f 243/248/221 244/251/221 232/250/221
f 244/251/222 245/253/222 233/252/222
f 245/253/223 246/255/223 234/254/223
f 246/255/224 247/274/224 235/256/224
f 247/257/225 248/276/225 236/258/225
f 236/258/226 248/276/226 249/260/226
f 237/261/227 249/260/227 250/262/227
f 250/262/228 251/265/228 239/264/228
f 251/265/229 252/267/229 240/266/229
f 252/267/230 241/268/230 229/245/230
f 241/268/231 253/281/231 254/269/231
f 254/269/232 255/270/232 243/248/232
f 255/270/233 256/283/233 244/251/233
f 244/251/234 256/283/234 257/271/234
f 245/253/235 257/271/235 258/272/235
f 246/255/236 258/272/236 259/273/236
f 247/257/237 259/287/237 260/275/237
f 248/276/238 260/275/238 261/277/238
f 261/277/239 262/290/239 250/262/239
f 250/262/240 262/290/240 263/278/240
f 263/278/241 264/279/241 252/267/241
f 264/279/242 253/281/242 241/268/242
f 265/280/243 266/294/243 254/269/243
f 254/269/244 266/294/244 267/282/244
f 267/282/245 268/297/245 256/283/245
f 256/283/246 268/297/246 269/284/246
f 269/284/247 270/285/247 258/272/247
f 270/285/248 271/301/248 259/273/248
f 271/286/249 272/288/249 260/275/249
f 272/288/250 273/289/250 261/277/250
f 273/289/251 274/291/251 262/290/251
f 274/291/252 275/292/252 263/278/252
f 275/292/253 276/307/253 264/279/253
f 264/279/254 276/307/254 265/280/254
f 277/293/255 278/295/255 266/294/255
f 278/295/256 279/296/256 267/282/256
f 279/296/257 280/298/257 268/297/257
f 280/298/258 281/299/258 269/284/258
f 281/299/259 282/300/259 270/285/259
f 282/300/260 283/314/260 271/301/260
f 283/302/261 284/316/261 272/288/261
f 272/288/262 284/316/262 285/303/262
f 273/289/263 285/303/263 286/304/263
f 274/291/264 286/304/264 287/305/264
f 275/292/265 287/305/265 288/306/265
f 276/307/266 288/306/266 277/293/266
f 289/308/267 290/309/267 278/295/267
f 290/309/268 291/310/268 279/296/268
f 291/310/269 292/311/269 280/298/269
f 292/311/270 293/312/270 281/299/270
f 293/312/271 294/313/271 282/300/271
f 294/313/272 295/637/272 283/314/272
f 295/315/273 296/317/273 284/316/273
f 296/317/274 297/318/274 285/303/274
f 297/318/275 298/319/275 286/304/275
f 298/319/276 299/638/276 287/305/276
f 287/305/277 299/638/277 300/320/277
f 300/320/278 289/308/278 277/293/278
f 301/321/6 302/343/6 290/322/6
f 290/322/5 302/343/5 303/324/5
f 291/325/4 303/324/4 304/326/4
f 304/326/3 305/329/3 293/328/3
f 305/329/2 306/331/2 294/330/2
f 306/331/1 307/347/1 295/332/1
f 295/333/12 307/349/12 308/334/12
f 308/334/11 309/351/11 297/336/11
f 297/336/10 309/351/10 310/337/10
f 310/337/9 311/340/9 299/339/9
f 311/340/8 312/355/8 300/341/8
f 300/341/7 312/355/7 301/321/7
f 301/321/18 313/358/18 314/342/18
f 314/342/17 315/360/17 303/324/17
f 303/324/16 315/360/16 316/344/16
f 304/326/15 316/344/15 317/345/15
f 305/329/14 317/345/14 318/346/14
f 318/346/13 319/364/13 307/347/13
f 319/348/24 320/350/24 308/334/24
f 320/350/23 321/352/23 309/351/23
f 321/352/22 322/353/22 310/337/22
f 322/353/21 323/354/21 311/340/21
f 323/354/20 324/356/20 312/355/20
f 324/356/19 313/358/19 301/321/19
f 325/357/30 326/371/30 314/342/30
f 314/342/29 326/371/29 327/359/29
f 315/360/28 327/359/28 328/361/28
f 328/361/27 329/362/27 317/345/27
f 329/362/26 330/363/26 318/346/26
f 330/363/25 331/377/25 319/364/25
f 331/365/36 332/366/36 320/350/36
f 332/366/35 333/380/35 321/352/35
f 321/352/34 333/380/34 334/367/34
f 334/367/33 335/368/33 323/354/33
f 335/368/32 336/369/32 324/356/32
f 336/369/31 325/357/31 313/358/31
f 337/370/42 338/372/42 326/371/42
f 338/372/41 339/373/41 327/359/41
f 339/373/40 340/374/40 328/361/40
f 340/374/39 341/375/39 329/362/39
f 341/375/38 342/376/38 330/363/38
f 342/376/37 343/389/37 331/377/37
f 343/378/48 344/391/48 332/366/48
f 332/366/47 344/391/47 345/379/47
f 333/380/46 345/379/46 346/381/46
f 334/367/45 346/381/45 347/382/45
f 335/368/44 347/382/44 348/383/44
f 336/369/43 348/383/43 337/370/43
f 349/384/54 350/385/54 338/372/54
f 350/385/53 351/397/53 339/373/53
f 339/373/52 351/397/52 352/386/52
f 352/386/51 353/387/51 341/375/51
f 353/387/50 354/400/50 342/376/50
f 342/376/49 354/400/49 355/388/49
f 355/390/60 356/403/60 344/391/60
f 344/391/59 356/403/59 357/392/59
f 345/379/58 357/392/58 358/393/58
f 358/393/57 359/406/57 347/382/57
f 347/382/56 359/406/56 360/394/56
f 348/383/55 360/394/55 349/384/55
f 361/395/66 362/409/66 350/385/66
f 350/385/65 362/409/65 363/396/65
f 351/397/64 363/396/64 364/398/64
f 352/386/63 364/398/63 365/399/63
f 365/399/62 366/401/62 354/400/62
f 366/401/61 367/414/61 355/388/61
f 355/390/72 367/416/72 368/402/72
f 356/403/71 368/402/71 369/404/71
f 357/392/70 369/404/70 370/405/70
f 370/405/69 371/420/69 359/406/69
f 359/406/68 371/420/68 372/407/68
f 360/394/67 372/407/67 361/395/67
f 361/395/78 373/422/78 374/408/78
f 374/408/77 375/410/77 363/396/77
f 375/410/76 376/411/76 364/398/76
f 376/411/75 377/412/75 365/399/75
f 377/412/74 378/413/74 366/401/74
f 378/413/73 379/427/73 367/414/73
f 379/415/84 380/417/84 368/402/84
f 380/417/83 381/418/83 369/404/83
f 381/418/82 382/431/82 370/405/82
f 370/405/81 382/431/81 383/419/81
f 383/419/80 384/421/80 372/407/80
f 384/421/79 373/422/79 361/395/79
f 373/422/90 385/435/90 386/423/90
f 386/423/89 387/424/89 375/410/89
f 387/424/88 388/425/88 376/411/88
f 388/425/87 389/438/87 377/412/87
f 377/412/86 389/438/86 390/426/86
f 390/426/85 391/440/85 379/427/85
f 391/428/96 392/442/96 380/417/96
f 380/417/95 392/442/95 393/429/95
f 381/418/94 393/429/94 394/430/94
f 382/431/93 394/430/93 395/432/93
f 395/432/92 396/433/92 384/421/92
f 396/433/91 385/435/91 373/422/91
f 397/434/102 398/436/102 386/423/102
f 398/436/101 399/449/101 387/424/101
f 387/424/100 399/449/100 400/437/100
f 400/437/99 401/451/99 389/438/99
f 389/438/98 401/451/98 402/439/98
f 402/439/97 403/454/97 391/440/97
f 391/428/108 403/456/108 404/441/108
f 404/441/107 405/443/107 393/429/107
f 405/443/106 406/444/106 394/430/106
f 406/444/105 407/445/105 395/432/105
f 407/445/104 408/446/104 396/433/104
f 408/446/103 397/434/103 385/435/103
f 397/434/114 409/461/114 410/447/114
f 398/436/113 410/447/113 411/448/113
f 411/448/112 412/450/112 400/437/112
f 412/450/111 413/452/111 401/451/111
f 413/452/110 414/453/110 402/439/110
f 414/453/109 415/467/109 403/454/109
f 415/455/120 416/457/120 404/441/120
f 416/457/119 417/458/119 405/443/119
f 417/458/118 418/471/118 406/444/118
f 406/444/117 418/471/117 419/459/117
f 419/459/116 420/460/116 408/446/116
f 420/460/115 409/461/115 397/434/115
f 409/461/126 421/476/126 422/462/126
f 410/447/125 422/462/125 423/463/125
f 423/463/124 424/464/124 412/450/124
f 424/464/123 425/465/123 413/452/123
f 425/465/122 426/480/122 414/453/122
f 414/453/121 426/480/121 427/466/121
f 427/468/132 428/469/132 416/457/132
f 428/469/131 429/470/131 417/458/131
f 429/470/130 430/472/130 418/471/130
f 430/472/129 431/473/129 419/459/129
f 431/473/128 432/474/128 420/460/128
f 432/474/127 421/476/127 409/461/127
f 433/475/138 434/477/138 422/462/138
f 434/477/137 435/488/137 423/463/137
f 423/463/136 435/488/136 436/478/136
f 436/478/135 437/490/135 425/465/135
f 425/465/134 437/490/134 438/479/134
f 438/479/133 439/493/133 427/466/133
f 439/481/144 440/482/144 428/469/144
f 440/482/143 441/483/143 429/470/143
f 441/483/142 442/484/142 430/472/142
f 442/484/141 443/497/141 431/473/141
f 431/473/140 443/497/140 444/485/140
f 444/485/139 433/475/139 421/476/139
f 433/475/150 445/501/150 446/486/150
f 434/477/149 446/486/149 447/487/149
f 447/487/148 448/489/148 436/478/148
f 448/489/147 449/491/147 437/490/147
f 449/491/146 450/492/146 438/479/146
f 450/492/145 451/506/145 439/493/145
f 451/494/156 452/508/156 440/482/156
f 440/482/155 452/508/155 453/495/155
f 441/483/154 453/495/154 454/496/154
f 454/496/153 455/498/153 443/497/153
f 455/498/152 456/499/152 444/485/152
f 456/499/151 445/501/151 433/475/151
f 457/500/162 458/502/162 446/486/162
f 458/502/161 459/503/161 447/487/161
f 459/503/160 460/516/160 448/489/160
f 448/489/159 460/516/159 461/504/159
f 449/491/158 461/504/158 462/505/158
f 462/505/157 463/519/157 451/506/157
f 463/507/168 464/509/168 452/508/168
f 464/509/167 465/510/167 453/495/167
f 465/510/166 466/511/166 454/496/166
f 466/511/165 467/523/165 455/498/165
f 455/498/164 467/523/164 468/512/164
f 456/499/163 468/512/163 457/500/163
f 469/513/174 470/514/174 458/502/174
f 470/514/173 471/527/173 459/503/173
f 459/503/172 471/527/172 472/515/172
f 472/515/171 473/517/171 461/504/171
f 473/517/170 474/518/170 462/505/170
f 474/518/169 475/532/169 463/519/169
f 475/520/180 476/534/180 464/509/180
f 464/509/179 476/534/179 477/521/179
f 477/521/178 478/536/178 466/511/178
f 466/511/177 478/536/177 479/522/177
f 467/523/176 479/522/176 480/524/176
f 480/524/175 469/513/175 457/500/175
f 481/525/186 482/526/186 470/514/186
f 482/526/185 483/528/185 471/527/185
f 483/528/184 484/529/184 472/515/184
f 484/529/183 485/543/183 473/517/183
f 473/517/182 485/543/182 486/530/182
f 474/518/181 486/530/181 487/531/181
f 487/533/192 488/547/192 476/534/192
f 476/534/191 488/547/191 489/535/191
f 489/535/190 490/537/190 478/536/190
f 490/537/189 491/550/189 479/522/189
f 479/522/188 491/550/188 492/538/188
f 480/524/187 492/538/187 481/525/187
f 493/539/198 494/540/198 482/526/198
f 494/540/197 495/541/197 483/528/197
f 495/541/196 496/542/196 484/529/196
f 496/542/195 497/544/195 485/543/195
f 497/544/194 498/545/194 486/530/194
f 498/545/193 499/557/193 487/531/193
f 487/533/204 499/559/204 500/546/204
f 488/547/203 500/546/203 501/548/203
f 501/548/202 502/561/202 490/537/202
f 490/537/201 502/561/201 503/549/201
f 491/550/200 503/549/200 504/551/200
f 492/538/199 504/551/199 493/539/199
f 505/552/210 506/566/210 494/540/210
f 494/540/209 506/566/209 507/553/209
f 495/541/208 507/553/208 508/554/208
f 496/542/207 508/554/207 509/555/207
f 509/555/206 510/571/206 498/545/206
f 498/545/205 510/571/205 511/556/205
f 511/558/216 512/574/216 500/546/216
f 500/546/215 512/574/215 513/560/215
f 513/560/214 514/562/214 502/561/214
f 514/562/213 515/563/213 503/549/213
f 515/563/212 516/564/212 504/551/212
f 516/564/211 505/552/211 493/539/211
f 517/565/279 518/567/279 506/566/279
f 518/567/280 519/568/280 507/553/280
f 519/568/281 520/569/281 508/554/281
f 520/569/282 521/570/282 509/555/282
f 521/570/283 522/572/283 510/571/283
f 522/572/284 523/583/284 511/556/284
f 523/573/285 524/585/285 512/574/285
f 512/574/286 524/585/286 525/575/286
f 513/560/287 525/575/287 526/576/287
f 514/562/288 526/576/288 527/577/288
f 515/563/289 527/577/289 528/578/289
f 528/578/290 517/565/290 505/552/290
f 517/565/224 529/590/224 530/579/224
f 530/579/223 531/593/223 519/568/223
f 519/568/222 531/593/222 532/580/222
f 532/580/221 533/581/221 521/570/221
f 533/581/220 534/582/220 522/572/220
f 534/582/219 535/597/219 523/583/219
f 535/584/230 536/586/230 524/585/230
f 536/586/229 537/587/229 525/575/229
f 537/587/228 538/601/228 526/576/228
f 526/576/227 538/601/227 539/588/227
f 527/577/226 539/588/226 540/589/226
f 540/589/225 529/590/225 517/565/225
f 529/590/236 541/606/236 542/591/236
f 530/579/235 542/591/235 543/592/235
f 531/593/234 543/592/234 544/594/234
f 532/580/233 544/594/233 545/595/233
f 545/595/232 546/596/232 534/582/232
f 546/596/231 547/610/231 535/597/231
f 547/598/242 548/599/242 536/586/242
f 548/599/241 549/600/241 537/587/241
f 549/600/240 550/602/240 538/601/240
f 550/602/239 551/603/239 539/588/239
f 551/603/238 552/604/238 540/589/238
f 552/604/237 541/606/237 529/590/237
f 553/605/248 554/616/248 542/591/248
f 542/591/247 554/616/247 555/607/247
f 555/607/246 556/619/246 544/594/246
f 544/594/245 556/619/245 557/608/245
f 545/595/244 557/608/244 558/609/244
f 558/609/243 559/622/243 547/610/243
f 559/611/254 560/612/254 548/599/254
f 560/612/253 561/613/253 549/600/253
f 561/613/252 562/626/252 550/602/252
f 550/602/251 562/626/251 563/614/251
f 563/614/250 564/628/250 552/604/250
f 552/604/249 564/628/249 553/605/249
f 565/615/260 566/630/260 554/616/260
f 554/616/259 566/630/259 567/617/259
f 555/607/258 567/617/258 568/618/258
f 568/618/257 569/620/257 557/608/257
f 569/620/256 570/621/256 558/609/256
f 570/621/255 571/631/255 559/622/255
f 571/623/266 572/624/266 560/612/266
f 572/624/265 573/632/265 561/613/265
f 561/613/264 573/632/264 574/625/264
f 562/626/263 574/625/263 575/627/263
f 575/627/262 576/629/262 564/628/262
f 576/629/261 565/615/261 553/605/261
f 565/615/272 1/1/272 2/3/272
f 2/3/271 3/4/271 567/617/271
f 3/4/270 4/6/270 568/618/270
f 568/618/269 4/6/269 5/7/269
f 5/7/268 6/9/268 570/621/268
f 6/9/267 7/10/267 571/631/267
f 7/13/278 8/12/278 572/624/278
f 8/12/277 9/15/277 573/632/277
f 9/15/276 10/17/276 574/625/276
f 10/17/275 11/19/275 575/627/275
f 575/627/274 11/19/274 12/21/274
f 12/21/273 1/1/273 565/615/273
